<mxfile host="app.diagrams.net" agent="Mozilla/5.0 (Windows NT 10.0; Win64; x64) AppleWebKit/537.36 (KHTML, like Gecko) Chrome/128.0.0.0 Safari/537.36" version="24.7.14">
  <diagram name="第 1 页" id="KI1udPQKqIKra192JpRY">
    <mxGraphModel dx="819" dy="398" grid="1" gridSize="10" guides="1" tooltips="1" connect="1" arrows="1" fold="1" page="1" pageScale="1" pageWidth="827" pageHeight="1169" math="0" shadow="0">
      <root>
        <mxCell id="0" />
        <mxCell id="1" parent="0" />
        <mxCell id="VV1-WSSh1_EVQnIz84K7-1" value="&lt;b&gt;&lt;font style=&quot;font-size: 24px;&quot;&gt;源代码&lt;/font&gt;&lt;/b&gt;&lt;div&gt;utf-8 编码格式&lt;/div&gt;&lt;div&gt;的文本文件&lt;/div&gt;" style="rounded=0;whiteSpace=wrap;html=1;" parent="1" vertex="1">
          <mxGeometry x="40" y="50" width="140" height="70" as="geometry" />
        </mxCell>
        <mxCell id="VV1-WSSh1_EVQnIz84K7-2" value="" style="endArrow=classic;html=1;rounded=0;exitX=0.5;exitY=1;exitDx=0;exitDy=0;" parent="1" source="VV1-WSSh1_EVQnIz84K7-1" target="VV1-WSSh1_EVQnIz84K7-3" edge="1">
          <mxGeometry width="50" height="50" relative="1" as="geometry">
            <mxPoint x="220" y="120" as="sourcePoint" />
            <mxPoint x="390" y="300" as="targetPoint" />
          </mxGeometry>
        </mxCell>
        <mxCell id="VV1-WSSh1_EVQnIz84K7-3" value="START" style="ellipse;whiteSpace=wrap;html=1;aspect=fixed;" parent="1" vertex="1">
          <mxGeometry x="70" y="200" width="80" height="80" as="geometry" />
        </mxCell>
        <mxCell id="VV1-WSSh1_EVQnIz84K7-4" value="" style="endArrow=classic;html=1;rounded=0;exitX=1;exitY=0.5;exitDx=0;exitDy=0;entryX=0;entryY=0.5;entryDx=0;entryDy=0;" parent="1" source="VV1-WSSh1_EVQnIz84K7-6" edge="1">
          <mxGeometry width="50" height="50" relative="1" as="geometry">
            <mxPoint x="239" y="260" as="sourcePoint" />
            <mxPoint x="349" y="240" as="targetPoint" />
          </mxGeometry>
        </mxCell>
        <mxCell id="VV1-WSSh1_EVQnIz84K7-8" value="" style="endArrow=classic;html=1;rounded=0;exitX=1;exitY=0.5;exitDx=0;exitDy=0;" parent="1" source="VV1-WSSh1_EVQnIz84K7-3" target="VV1-WSSh1_EVQnIz84K7-6" edge="1">
          <mxGeometry width="50" height="50" relative="1" as="geometry">
            <mxPoint x="150" y="240" as="sourcePoint" />
            <mxPoint x="330" y="240" as="targetPoint" />
          </mxGeometry>
        </mxCell>
        <mxCell id="VV1-WSSh1_EVQnIz84K7-6" value="+" style="text;strokeColor=none;fillColor=none;html=1;fontSize=24;fontStyle=1;verticalAlign=middle;align=center;" parent="1" vertex="1">
          <mxGeometry x="179" y="220" width="100" height="40" as="geometry" />
        </mxCell>
        <mxCell id="VV1-WSSh1_EVQnIz84K7-40" value="" style="endArrow=classic;html=1;rounded=0;entryX=0;entryY=0.5;entryDx=0;entryDy=0;" parent="1" source="VV1-WSSh1_EVQnIz84K7-42" edge="1">
          <mxGeometry width="50" height="50" relative="1" as="geometry">
            <mxPoint x="160" y="330" as="sourcePoint" />
            <mxPoint x="350" y="330" as="targetPoint" />
          </mxGeometry>
        </mxCell>
        <mxCell id="VV1-WSSh1_EVQnIz84K7-41" value="" style="endArrow=classic;html=1;rounded=0;" parent="1" target="VV1-WSSh1_EVQnIz84K7-42" edge="1">
          <mxGeometry width="50" height="50" relative="1" as="geometry">
            <mxPoint x="160" y="330" as="sourcePoint" />
            <mxPoint x="330" y="330" as="targetPoint" />
          </mxGeometry>
        </mxCell>
        <mxCell id="VV1-WSSh1_EVQnIz84K7-42" value="*" style="text;strokeColor=none;fillColor=none;html=1;fontSize=24;fontStyle=1;verticalAlign=middle;align=center;" parent="1" vertex="1">
          <mxGeometry x="180" y="310" width="100" height="40" as="geometry" />
        </mxCell>
        <mxCell id="VV1-WSSh1_EVQnIz84K7-44" value="" style="endArrow=classic;html=1;rounded=0;entryX=0;entryY=0.5;entryDx=0;entryDy=0;" parent="1" source="VV1-WSSh1_EVQnIz84K7-46" edge="1">
          <mxGeometry width="50" height="50" relative="1" as="geometry">
            <mxPoint x="160.5" y="430" as="sourcePoint" />
            <mxPoint x="350.5" y="430" as="targetPoint" />
          </mxGeometry>
        </mxCell>
        <mxCell id="VV1-WSSh1_EVQnIz84K7-45" value="" style="endArrow=classic;html=1;rounded=0;" parent="1" target="VV1-WSSh1_EVQnIz84K7-46" edge="1">
          <mxGeometry width="50" height="50" relative="1" as="geometry">
            <mxPoint x="160.5" y="430" as="sourcePoint" />
            <mxPoint x="330.5" y="430" as="targetPoint" />
          </mxGeometry>
        </mxCell>
        <mxCell id="VV1-WSSh1_EVQnIz84K7-46" value="%" style="text;strokeColor=none;fillColor=none;html=1;fontSize=24;fontStyle=1;verticalAlign=middle;align=center;" parent="1" vertex="1">
          <mxGeometry x="180.5" y="410" width="100" height="40" as="geometry" />
        </mxCell>
        <mxCell id="VV1-WSSh1_EVQnIz84K7-48" value="" style="endArrow=classic;html=1;rounded=0;entryX=0;entryY=0.5;entryDx=0;entryDy=0;" parent="1" source="VV1-WSSh1_EVQnIz84K7-50" edge="1">
          <mxGeometry width="50" height="50" relative="1" as="geometry">
            <mxPoint x="160.5" y="520" as="sourcePoint" />
            <mxPoint x="350.5" y="520" as="targetPoint" />
          </mxGeometry>
        </mxCell>
        <mxCell id="VV1-WSSh1_EVQnIz84K7-49" value="" style="endArrow=classic;html=1;rounded=0;" parent="1" target="VV1-WSSh1_EVQnIz84K7-50" edge="1">
          <mxGeometry width="50" height="50" relative="1" as="geometry">
            <mxPoint x="160.5" y="520" as="sourcePoint" />
            <mxPoint x="330.5" y="520" as="targetPoint" />
          </mxGeometry>
        </mxCell>
        <mxCell id="VV1-WSSh1_EVQnIz84K7-50" value="^" style="text;strokeColor=none;fillColor=none;html=1;fontSize=24;fontStyle=1;verticalAlign=middle;align=center;" parent="1" vertex="1">
          <mxGeometry x="180.5" y="500" width="100" height="40" as="geometry" />
        </mxCell>
        <mxCell id="VV1-WSSh1_EVQnIz84K7-52" value="" style="endArrow=classic;html=1;rounded=0;entryX=0;entryY=0.5;entryDx=0;entryDy=0;" parent="1" source="VV1-WSSh1_EVQnIz84K7-54" edge="1">
          <mxGeometry width="50" height="50" relative="1" as="geometry">
            <mxPoint x="160.5" y="610" as="sourcePoint" />
            <mxPoint x="350.5" y="610" as="targetPoint" />
          </mxGeometry>
        </mxCell>
        <mxCell id="VV1-WSSh1_EVQnIz84K7-53" value="" style="endArrow=classic;html=1;rounded=0;" parent="1" target="VV1-WSSh1_EVQnIz84K7-54" edge="1">
          <mxGeometry width="50" height="50" relative="1" as="geometry">
            <mxPoint x="160.5" y="610" as="sourcePoint" />
            <mxPoint x="330.5" y="610" as="targetPoint" />
          </mxGeometry>
        </mxCell>
        <mxCell id="VV1-WSSh1_EVQnIz84K7-54" value="!" style="text;strokeColor=none;fillColor=none;html=1;fontSize=24;fontStyle=1;verticalAlign=middle;align=center;" parent="1" vertex="1">
          <mxGeometry x="180.5" y="590" width="100" height="40" as="geometry" />
        </mxCell>
        <mxCell id="VV1-WSSh1_EVQnIz84K7-56" value="" style="endArrow=classic;html=1;rounded=0;entryX=0;entryY=0.5;entryDx=0;entryDy=0;" parent="1" source="VV1-WSSh1_EVQnIz84K7-58" edge="1">
          <mxGeometry width="50" height="50" relative="1" as="geometry">
            <mxPoint x="160.5" y="700" as="sourcePoint" />
            <mxPoint x="350.5" y="700" as="targetPoint" />
          </mxGeometry>
        </mxCell>
        <mxCell id="VV1-WSSh1_EVQnIz84K7-57" value="" style="endArrow=classic;html=1;rounded=0;" parent="1" target="VV1-WSSh1_EVQnIz84K7-58" edge="1">
          <mxGeometry width="50" height="50" relative="1" as="geometry">
            <mxPoint x="160.5" y="700" as="sourcePoint" />
            <mxPoint x="330.5" y="700" as="targetPoint" />
          </mxGeometry>
        </mxCell>
        <mxCell id="VV1-WSSh1_EVQnIz84K7-58" value=":" style="text;strokeColor=none;fillColor=none;html=1;fontSize=24;fontStyle=1;verticalAlign=middle;align=center;" parent="1" vertex="1">
          <mxGeometry x="180.5" y="680" width="100" height="40" as="geometry" />
        </mxCell>
        <mxCell id="VV1-WSSh1_EVQnIz84K7-60" value="" style="endArrow=classic;html=1;rounded=0;entryX=0;entryY=0.5;entryDx=0;entryDy=0;" parent="1" source="VV1-WSSh1_EVQnIz84K7-62" edge="1">
          <mxGeometry width="50" height="50" relative="1" as="geometry">
            <mxPoint x="160.5" y="990" as="sourcePoint" />
            <mxPoint x="350.5" y="990" as="targetPoint" />
          </mxGeometry>
        </mxCell>
        <mxCell id="VV1-WSSh1_EVQnIz84K7-61" value="" style="endArrow=classic;html=1;rounded=0;" parent="1" target="VV1-WSSh1_EVQnIz84K7-62" edge="1">
          <mxGeometry width="50" height="50" relative="1" as="geometry">
            <mxPoint x="160.5" y="990" as="sourcePoint" />
            <mxPoint x="330.5" y="990" as="targetPoint" />
          </mxGeometry>
        </mxCell>
        <mxCell id="VV1-WSSh1_EVQnIz84K7-62" value="-" style="text;strokeColor=none;fillColor=none;html=1;fontSize=24;fontStyle=1;verticalAlign=middle;align=center;" parent="1" vertex="1">
          <mxGeometry x="180.5" y="970" width="100" height="40" as="geometry" />
        </mxCell>
        <mxCell id="VV1-WSSh1_EVQnIz84K7-64" value="" style="endArrow=classic;html=1;rounded=0;entryX=0;entryY=0.5;entryDx=0;entryDy=0;" parent="1" source="VV1-WSSh1_EVQnIz84K7-66" edge="1">
          <mxGeometry width="50" height="50" relative="1" as="geometry">
            <mxPoint x="160.5" y="790" as="sourcePoint" />
            <mxPoint x="350.5" y="790" as="targetPoint" />
          </mxGeometry>
        </mxCell>
        <mxCell id="VV1-WSSh1_EVQnIz84K7-65" value="" style="endArrow=classic;html=1;rounded=0;" parent="1" target="VV1-WSSh1_EVQnIz84K7-66" edge="1">
          <mxGeometry width="50" height="50" relative="1" as="geometry">
            <mxPoint x="160.5" y="790" as="sourcePoint" />
            <mxPoint x="330.5" y="790" as="targetPoint" />
          </mxGeometry>
        </mxCell>
        <mxCell id="VV1-WSSh1_EVQnIz84K7-66" value="=" style="text;strokeColor=none;fillColor=none;html=1;fontSize=24;fontStyle=1;verticalAlign=middle;align=center;" parent="1" vertex="1">
          <mxGeometry x="180.5" y="770" width="100" height="40" as="geometry" />
        </mxCell>
        <mxCell id="efxZgGYCrOohWAM89N6y-8" value="" style="edgeStyle=orthogonalEdgeStyle;rounded=0;orthogonalLoop=1;jettySize=auto;html=1;" parent="1" source="efxZgGYCrOohWAM89N6y-9" target="efxZgGYCrOohWAM89N6y-7" edge="1">
          <mxGeometry relative="1" as="geometry" />
        </mxCell>
        <mxCell id="efxZgGYCrOohWAM89N6y-4" value="INPLUS" style="ellipse;shape=doubleEllipse;whiteSpace=wrap;html=1;aspect=fixed;" parent="1" vertex="1">
          <mxGeometry x="349" y="200" width="80" height="80" as="geometry" />
        </mxCell>
        <mxCell id="ZWaSEKa7vMeZoo4IkMLN-2" value="" style="edgeStyle=orthogonalEdgeStyle;rounded=0;orthogonalLoop=1;jettySize=auto;html=1;" edge="1" parent="1" source="efxZgGYCrOohWAM89N6y-7" target="ZWaSEKa7vMeZoo4IkMLN-1">
          <mxGeometry relative="1" as="geometry" />
        </mxCell>
        <mxCell id="efxZgGYCrOohWAM89N6y-7" value="INPLUSEQ" style="ellipse;shape=doubleEllipse;whiteSpace=wrap;html=1;aspect=fixed;" parent="1" vertex="1">
          <mxGeometry x="589" y="200" width="80" height="80" as="geometry" />
        </mxCell>
        <mxCell id="efxZgGYCrOohWAM89N6y-10" value="" style="edgeStyle=orthogonalEdgeStyle;rounded=0;orthogonalLoop=1;jettySize=auto;html=1;" parent="1" source="efxZgGYCrOohWAM89N6y-4" target="efxZgGYCrOohWAM89N6y-9" edge="1">
          <mxGeometry relative="1" as="geometry">
            <mxPoint x="429" y="240" as="sourcePoint" />
            <mxPoint x="589" y="240" as="targetPoint" />
          </mxGeometry>
        </mxCell>
        <mxCell id="efxZgGYCrOohWAM89N6y-9" value="=" style="text;strokeColor=none;fillColor=none;html=1;fontSize=24;fontStyle=1;verticalAlign=middle;align=center;" parent="1" vertex="1">
          <mxGeometry x="459" y="220" width="100" height="40" as="geometry" />
        </mxCell>
        <mxCell id="efxZgGYCrOohWAM89N6y-13" value="" style="edgeStyle=orthogonalEdgeStyle;rounded=0;orthogonalLoop=1;jettySize=auto;html=1;" parent="1" source="efxZgGYCrOohWAM89N6y-14" target="efxZgGYCrOohWAM89N6y-12" edge="1">
          <mxGeometry relative="1" as="geometry" />
        </mxCell>
        <mxCell id="efxZgGYCrOohWAM89N6y-11" value="INSTAR" style="ellipse;shape=doubleEllipse;whiteSpace=wrap;html=1;aspect=fixed;" parent="1" vertex="1">
          <mxGeometry x="350" y="290" width="80" height="80" as="geometry" />
        </mxCell>
        <mxCell id="ZWaSEKa7vMeZoo4IkMLN-4" value="" style="edgeStyle=orthogonalEdgeStyle;rounded=0;orthogonalLoop=1;jettySize=auto;html=1;" edge="1" parent="1" source="efxZgGYCrOohWAM89N6y-12" target="ZWaSEKa7vMeZoo4IkMLN-3">
          <mxGeometry relative="1" as="geometry" />
        </mxCell>
        <mxCell id="efxZgGYCrOohWAM89N6y-12" value="INSTAR" style="ellipse;shape=doubleEllipse;whiteSpace=wrap;html=1;aspect=fixed;" parent="1" vertex="1">
          <mxGeometry x="590" y="290" width="80" height="80" as="geometry" />
        </mxCell>
        <mxCell id="efxZgGYCrOohWAM89N6y-15" value="" style="edgeStyle=orthogonalEdgeStyle;rounded=0;orthogonalLoop=1;jettySize=auto;html=1;" parent="1" source="efxZgGYCrOohWAM89N6y-11" target="efxZgGYCrOohWAM89N6y-14" edge="1">
          <mxGeometry relative="1" as="geometry">
            <mxPoint x="430" y="330" as="sourcePoint" />
            <mxPoint x="590" y="330" as="targetPoint" />
          </mxGeometry>
        </mxCell>
        <mxCell id="efxZgGYCrOohWAM89N6y-14" value="=" style="text;strokeColor=none;fillColor=none;html=1;fontSize=24;fontStyle=1;verticalAlign=middle;align=center;" parent="1" vertex="1">
          <mxGeometry x="460" y="310" width="100" height="40" as="geometry" />
        </mxCell>
        <mxCell id="efxZgGYCrOohWAM89N6y-23" value="" style="edgeStyle=orthogonalEdgeStyle;rounded=0;orthogonalLoop=1;jettySize=auto;html=1;" parent="1" source="efxZgGYCrOohWAM89N6y-24" target="efxZgGYCrOohWAM89N6y-22" edge="1">
          <mxGeometry relative="1" as="geometry" />
        </mxCell>
        <mxCell id="efxZgGYCrOohWAM89N6y-21" value="INPERCENT" style="ellipse;shape=doubleEllipse;whiteSpace=wrap;html=1;aspect=fixed;" parent="1" vertex="1">
          <mxGeometry x="350.5" y="390" width="80" height="80" as="geometry" />
        </mxCell>
        <mxCell id="ZWaSEKa7vMeZoo4IkMLN-9" value="" style="edgeStyle=orthogonalEdgeStyle;rounded=0;orthogonalLoop=1;jettySize=auto;html=1;" edge="1" parent="1" source="efxZgGYCrOohWAM89N6y-22" target="ZWaSEKa7vMeZoo4IkMLN-8">
          <mxGeometry relative="1" as="geometry" />
        </mxCell>
        <mxCell id="efxZgGYCrOohWAM89N6y-22" value="INPER&lt;div&gt;CENTEQ&lt;/div&gt;" style="ellipse;shape=doubleEllipse;whiteSpace=wrap;html=1;aspect=fixed;" parent="1" vertex="1">
          <mxGeometry x="590.5" y="390" width="80" height="80" as="geometry" />
        </mxCell>
        <mxCell id="efxZgGYCrOohWAM89N6y-25" value="" style="edgeStyle=orthogonalEdgeStyle;rounded=0;orthogonalLoop=1;jettySize=auto;html=1;" parent="1" source="efxZgGYCrOohWAM89N6y-21" target="efxZgGYCrOohWAM89N6y-24" edge="1">
          <mxGeometry relative="1" as="geometry">
            <mxPoint x="430.5" y="430" as="sourcePoint" />
            <mxPoint x="590.5" y="430" as="targetPoint" />
          </mxGeometry>
        </mxCell>
        <mxCell id="efxZgGYCrOohWAM89N6y-24" value="=" style="text;strokeColor=none;fillColor=none;html=1;fontSize=24;fontStyle=1;verticalAlign=middle;align=center;" parent="1" vertex="1">
          <mxGeometry x="460.5" y="410" width="100" height="40" as="geometry" />
        </mxCell>
        <mxCell id="efxZgGYCrOohWAM89N6y-29" value="" style="edgeStyle=orthogonalEdgeStyle;rounded=0;orthogonalLoop=1;jettySize=auto;html=1;" parent="1" source="efxZgGYCrOohWAM89N6y-30" target="efxZgGYCrOohWAM89N6y-28" edge="1">
          <mxGeometry relative="1" as="geometry" />
        </mxCell>
        <mxCell id="efxZgGYCrOohWAM89N6y-26" value="INCARET" style="ellipse;shape=doubleEllipse;whiteSpace=wrap;html=1;aspect=fixed;" parent="1" vertex="1">
          <mxGeometry x="350.5" y="480" width="80" height="80" as="geometry" />
        </mxCell>
        <mxCell id="ZWaSEKa7vMeZoo4IkMLN-11" value="" style="edgeStyle=orthogonalEdgeStyle;rounded=0;orthogonalLoop=1;jettySize=auto;html=1;" edge="1" parent="1" source="efxZgGYCrOohWAM89N6y-28" target="ZWaSEKa7vMeZoo4IkMLN-10">
          <mxGeometry relative="1" as="geometry" />
        </mxCell>
        <mxCell id="efxZgGYCrOohWAM89N6y-28" value="INCARETEQ" style="ellipse;shape=doubleEllipse;whiteSpace=wrap;html=1;aspect=fixed;" parent="1" vertex="1">
          <mxGeometry x="590.5" y="480" width="80" height="80" as="geometry" />
        </mxCell>
        <mxCell id="efxZgGYCrOohWAM89N6y-31" value="" style="edgeStyle=orthogonalEdgeStyle;rounded=0;orthogonalLoop=1;jettySize=auto;html=1;" parent="1" source="efxZgGYCrOohWAM89N6y-26" target="efxZgGYCrOohWAM89N6y-30" edge="1">
          <mxGeometry relative="1" as="geometry">
            <mxPoint x="430.5" y="520" as="sourcePoint" />
            <mxPoint x="590.5" y="520" as="targetPoint" />
          </mxGeometry>
        </mxCell>
        <mxCell id="efxZgGYCrOohWAM89N6y-30" value="=" style="text;strokeColor=none;fillColor=none;html=1;fontSize=24;fontStyle=1;verticalAlign=middle;align=center;" parent="1" vertex="1">
          <mxGeometry x="460.5" y="500" width="100" height="40" as="geometry" />
        </mxCell>
        <mxCell id="efxZgGYCrOohWAM89N6y-34" value="" style="edgeStyle=orthogonalEdgeStyle;rounded=0;orthogonalLoop=1;jettySize=auto;html=1;" parent="1" source="efxZgGYCrOohWAM89N6y-35" target="efxZgGYCrOohWAM89N6y-33" edge="1">
          <mxGeometry relative="1" as="geometry" />
        </mxCell>
        <mxCell id="efxZgGYCrOohWAM89N6y-32" value="INNOT" style="ellipse;shape=doubleEllipse;whiteSpace=wrap;html=1;aspect=fixed;" parent="1" vertex="1">
          <mxGeometry x="350.5" y="570" width="80" height="80" as="geometry" />
        </mxCell>
        <mxCell id="ZWaSEKa7vMeZoo4IkMLN-13" value="" style="edgeStyle=orthogonalEdgeStyle;rounded=0;orthogonalLoop=1;jettySize=auto;html=1;" edge="1" parent="1" source="efxZgGYCrOohWAM89N6y-33" target="ZWaSEKa7vMeZoo4IkMLN-12">
          <mxGeometry relative="1" as="geometry" />
        </mxCell>
        <mxCell id="efxZgGYCrOohWAM89N6y-33" value="INNOTEQ" style="ellipse;shape=doubleEllipse;whiteSpace=wrap;html=1;aspect=fixed;" parent="1" vertex="1">
          <mxGeometry x="590.5" y="570" width="80" height="80" as="geometry" />
        </mxCell>
        <mxCell id="efxZgGYCrOohWAM89N6y-36" value="" style="edgeStyle=orthogonalEdgeStyle;rounded=0;orthogonalLoop=1;jettySize=auto;html=1;" parent="1" source="efxZgGYCrOohWAM89N6y-32" target="efxZgGYCrOohWAM89N6y-35" edge="1">
          <mxGeometry relative="1" as="geometry">
            <mxPoint x="430.5" y="610" as="sourcePoint" />
            <mxPoint x="590.5" y="610" as="targetPoint" />
          </mxGeometry>
        </mxCell>
        <mxCell id="efxZgGYCrOohWAM89N6y-35" value="=" style="text;strokeColor=none;fillColor=none;html=1;fontSize=24;fontStyle=1;verticalAlign=middle;align=center;" parent="1" vertex="1">
          <mxGeometry x="460.5" y="590" width="100" height="40" as="geometry" />
        </mxCell>
        <mxCell id="efxZgGYCrOohWAM89N6y-40" value="" style="edgeStyle=orthogonalEdgeStyle;rounded=0;orthogonalLoop=1;jettySize=auto;html=1;" parent="1" source="efxZgGYCrOohWAM89N6y-41" target="efxZgGYCrOohWAM89N6y-39" edge="1">
          <mxGeometry relative="1" as="geometry" />
        </mxCell>
        <mxCell id="efxZgGYCrOohWAM89N6y-37" value="INCOLON" style="ellipse;shape=doubleEllipse;whiteSpace=wrap;html=1;aspect=fixed;" parent="1" vertex="1">
          <mxGeometry x="350.5" y="660" width="80" height="80" as="geometry" />
        </mxCell>
        <mxCell id="ZWaSEKa7vMeZoo4IkMLN-15" value="" style="edgeStyle=orthogonalEdgeStyle;rounded=0;orthogonalLoop=1;jettySize=auto;html=1;" edge="1" parent="1" source="efxZgGYCrOohWAM89N6y-39" target="ZWaSEKa7vMeZoo4IkMLN-14">
          <mxGeometry relative="1" as="geometry" />
        </mxCell>
        <mxCell id="efxZgGYCrOohWAM89N6y-39" value="INCOLONEQ" style="ellipse;shape=doubleEllipse;whiteSpace=wrap;html=1;aspect=fixed;" parent="1" vertex="1">
          <mxGeometry x="590.5" y="660" width="80" height="80" as="geometry" />
        </mxCell>
        <mxCell id="efxZgGYCrOohWAM89N6y-42" value="" style="edgeStyle=orthogonalEdgeStyle;rounded=0;orthogonalLoop=1;jettySize=auto;html=1;" parent="1" source="efxZgGYCrOohWAM89N6y-37" target="efxZgGYCrOohWAM89N6y-41" edge="1">
          <mxGeometry relative="1" as="geometry">
            <mxPoint x="430.5" y="700" as="sourcePoint" />
            <mxPoint x="590.5" y="700" as="targetPoint" />
          </mxGeometry>
        </mxCell>
        <mxCell id="efxZgGYCrOohWAM89N6y-41" value="=" style="text;strokeColor=none;fillColor=none;html=1;fontSize=24;fontStyle=1;verticalAlign=middle;align=center;" parent="1" vertex="1">
          <mxGeometry x="460.5" y="680" width="100" height="40" as="geometry" />
        </mxCell>
        <mxCell id="efxZgGYCrOohWAM89N6y-45" value="" style="edgeStyle=orthogonalEdgeStyle;rounded=0;orthogonalLoop=1;jettySize=auto;html=1;" parent="1" source="efxZgGYCrOohWAM89N6y-46" target="efxZgGYCrOohWAM89N6y-44" edge="1">
          <mxGeometry relative="1" as="geometry" />
        </mxCell>
        <mxCell id="efxZgGYCrOohWAM89N6y-48" value="" style="edgeStyle=orthogonalEdgeStyle;rounded=0;orthogonalLoop=1;jettySize=auto;html=1;" parent="1" target="efxZgGYCrOohWAM89N6y-46" edge="1">
          <mxGeometry relative="1" as="geometry">
            <mxPoint x="490.5" y="790" as="sourcePoint" />
          </mxGeometry>
        </mxCell>
        <mxCell id="efxZgGYCrOohWAM89N6y-49" value="" style="edgeStyle=orthogonalEdgeStyle;rounded=0;orthogonalLoop=1;jettySize=auto;html=1;" parent="1" target="efxZgGYCrOohWAM89N6y-46" edge="1">
          <mxGeometry relative="1" as="geometry">
            <mxPoint x="490.5" y="790" as="sourcePoint" />
          </mxGeometry>
        </mxCell>
        <mxCell id="efxZgGYCrOohWAM89N6y-53" value="" style="edgeStyle=orthogonalEdgeStyle;rounded=0;orthogonalLoop=1;jettySize=auto;html=1;" parent="1" source="efxZgGYCrOohWAM89N6y-43" target="efxZgGYCrOohWAM89N6y-52" edge="1">
          <mxGeometry relative="1" as="geometry">
            <Array as="points">
              <mxPoint x="460.5" y="790" />
              <mxPoint x="460.5" y="880" />
            </Array>
          </mxGeometry>
        </mxCell>
        <mxCell id="efxZgGYCrOohWAM89N6y-43" value="INEQ" style="ellipse;shape=doubleEllipse;whiteSpace=wrap;html=1;aspect=fixed;" parent="1" vertex="1">
          <mxGeometry x="350.5" y="750" width="80" height="80" as="geometry" />
        </mxCell>
        <mxCell id="ZWaSEKa7vMeZoo4IkMLN-17" value="" style="edgeStyle=orthogonalEdgeStyle;rounded=0;orthogonalLoop=1;jettySize=auto;html=1;" edge="1" parent="1" source="efxZgGYCrOohWAM89N6y-44" target="ZWaSEKa7vMeZoo4IkMLN-16">
          <mxGeometry relative="1" as="geometry" />
        </mxCell>
        <mxCell id="efxZgGYCrOohWAM89N6y-44" value="INEQEQ" style="ellipse;shape=doubleEllipse;whiteSpace=wrap;html=1;aspect=fixed;" parent="1" vertex="1">
          <mxGeometry x="730.5" y="750" width="80" height="80" as="geometry" />
        </mxCell>
        <mxCell id="efxZgGYCrOohWAM89N6y-47" value="" style="edgeStyle=orthogonalEdgeStyle;rounded=0;orthogonalLoop=1;jettySize=auto;html=1;" parent="1" target="efxZgGYCrOohWAM89N6y-46" edge="1">
          <mxGeometry relative="1" as="geometry">
            <mxPoint x="440.5" y="790" as="sourcePoint" />
            <mxPoint x="650.5" y="790" as="targetPoint" />
          </mxGeometry>
        </mxCell>
        <mxCell id="efxZgGYCrOohWAM89N6y-46" value="=" style="text;strokeColor=none;fillColor=none;html=1;fontSize=24;fontStyle=1;verticalAlign=middle;align=center;" parent="1" vertex="1">
          <mxGeometry x="600.5" y="770" width="100" height="40" as="geometry" />
        </mxCell>
        <mxCell id="ZWaSEKa7vMeZoo4IkMLN-18" style="edgeStyle=orthogonalEdgeStyle;rounded=0;orthogonalLoop=1;jettySize=auto;html=1;exitX=1;exitY=0.5;exitDx=0;exitDy=0;entryX=0.5;entryY=1;entryDx=0;entryDy=0;" edge="1" parent="1" source="efxZgGYCrOohWAM89N6y-52" target="ZWaSEKa7vMeZoo4IkMLN-16">
          <mxGeometry relative="1" as="geometry" />
        </mxCell>
        <mxCell id="efxZgGYCrOohWAM89N6y-52" value="INEQ" style="ellipse;shape=doubleEllipse;whiteSpace=wrap;html=1;aspect=fixed;" parent="1" vertex="1">
          <mxGeometry x="730.5" y="840" width="80" height="80" as="geometry" />
        </mxCell>
        <mxCell id="efxZgGYCrOohWAM89N6y-54" value="" style="edgeStyle=orthogonalEdgeStyle;rounded=0;orthogonalLoop=1;jettySize=auto;html=1;exitX=1;exitY=0.5;exitDx=0;exitDy=0;" parent="1" source="efxZgGYCrOohWAM89N6y-43" target="efxZgGYCrOohWAM89N6y-46" edge="1">
          <mxGeometry relative="1" as="geometry">
            <mxPoint x="440.5" y="790" as="sourcePoint" />
            <mxPoint x="650.5" y="790" as="targetPoint" />
          </mxGeometry>
        </mxCell>
        <mxCell id="efxZgGYCrOohWAM89N6y-56" value="&amp;gt;" style="text;strokeColor=none;fillColor=none;html=1;fontSize=24;fontStyle=1;verticalAlign=middle;align=center;" parent="1" vertex="1">
          <mxGeometry x="550.5" y="840" width="100" height="40" as="geometry" />
        </mxCell>
        <mxCell id="efxZgGYCrOohWAM89N6y-63" value="" style="edgeStyle=orthogonalEdgeStyle;rounded=0;orthogonalLoop=1;jettySize=auto;html=1;" parent="1" source="efxZgGYCrOohWAM89N6y-69" target="efxZgGYCrOohWAM89N6y-67" edge="1">
          <mxGeometry relative="1" as="geometry" />
        </mxCell>
        <mxCell id="efxZgGYCrOohWAM89N6y-64" value="" style="edgeStyle=orthogonalEdgeStyle;rounded=0;orthogonalLoop=1;jettySize=auto;html=1;" parent="1" target="efxZgGYCrOohWAM89N6y-69" edge="1">
          <mxGeometry relative="1" as="geometry">
            <mxPoint x="490.5" y="990" as="sourcePoint" />
          </mxGeometry>
        </mxCell>
        <mxCell id="efxZgGYCrOohWAM89N6y-65" value="" style="edgeStyle=orthogonalEdgeStyle;rounded=0;orthogonalLoop=1;jettySize=auto;html=1;" parent="1" target="efxZgGYCrOohWAM89N6y-69" edge="1">
          <mxGeometry relative="1" as="geometry">
            <mxPoint x="490.5" y="990" as="sourcePoint" />
          </mxGeometry>
        </mxCell>
        <mxCell id="efxZgGYCrOohWAM89N6y-66" value="" style="edgeStyle=orthogonalEdgeStyle;rounded=0;orthogonalLoop=1;jettySize=auto;html=1;" parent="1" target="efxZgGYCrOohWAM89N6y-70" edge="1">
          <mxGeometry relative="1" as="geometry">
            <mxPoint x="430.5" y="990" as="sourcePoint" />
            <Array as="points">
              <mxPoint x="460.5" y="990" />
              <mxPoint x="460.5" y="1080" />
            </Array>
          </mxGeometry>
        </mxCell>
        <mxCell id="efxZgGYCrOohWAM89N6y-67" value="IMINUSEQ" style="ellipse;shape=doubleEllipse;whiteSpace=wrap;html=1;aspect=fixed;" parent="1" vertex="1">
          <mxGeometry x="730.5" y="950" width="80" height="80" as="geometry" />
        </mxCell>
        <mxCell id="efxZgGYCrOohWAM89N6y-68" value="" style="edgeStyle=orthogonalEdgeStyle;rounded=0;orthogonalLoop=1;jettySize=auto;html=1;" parent="1" target="efxZgGYCrOohWAM89N6y-69" edge="1">
          <mxGeometry relative="1" as="geometry">
            <mxPoint x="440.5" y="990" as="sourcePoint" />
            <mxPoint x="650.5" y="990" as="targetPoint" />
          </mxGeometry>
        </mxCell>
        <mxCell id="efxZgGYCrOohWAM89N6y-69" value="=" style="text;strokeColor=none;fillColor=none;html=1;fontSize=24;fontStyle=1;verticalAlign=middle;align=center;" parent="1" vertex="1">
          <mxGeometry x="600.5" y="970" width="100" height="40" as="geometry" />
        </mxCell>
        <mxCell id="efxZgGYCrOohWAM89N6y-70" value="INRARROW" style="ellipse;shape=doubleEllipse;whiteSpace=wrap;html=1;aspect=fixed;" parent="1" vertex="1">
          <mxGeometry x="730.5" y="1040" width="80" height="80" as="geometry" />
        </mxCell>
        <mxCell id="efxZgGYCrOohWAM89N6y-71" value="" style="edgeStyle=orthogonalEdgeStyle;rounded=0;orthogonalLoop=1;jettySize=auto;html=1;exitX=1;exitY=0.5;exitDx=0;exitDy=0;" parent="1" target="efxZgGYCrOohWAM89N6y-69" edge="1">
          <mxGeometry relative="1" as="geometry">
            <mxPoint x="430.5" y="990" as="sourcePoint" />
            <mxPoint x="650.5" y="990" as="targetPoint" />
          </mxGeometry>
        </mxCell>
        <mxCell id="efxZgGYCrOohWAM89N6y-72" value="&amp;gt;" style="text;strokeColor=none;fillColor=none;html=1;fontSize=24;fontStyle=1;verticalAlign=middle;align=center;" parent="1" vertex="1">
          <mxGeometry x="550.5" y="1040" width="100" height="40" as="geometry" />
        </mxCell>
        <mxCell id="efxZgGYCrOohWAM89N6y-75" value="INMINUS" style="ellipse;shape=doubleEllipse;whiteSpace=wrap;html=1;aspect=fixed;" parent="1" vertex="1">
          <mxGeometry x="350.5" y="950" width="80" height="80" as="geometry" />
        </mxCell>
        <mxCell id="VV1-WSSh1_EVQnIz84K7-72" value="" style="endArrow=classic;html=1;rounded=0;entryX=0;entryY=0.5;entryDx=0;entryDy=0;" parent="1" source="VV1-WSSh1_EVQnIz84K7-74" edge="1">
          <mxGeometry width="50" height="50" relative="1" as="geometry">
            <mxPoint x="160" y="1350" as="sourcePoint" />
            <mxPoint x="350" y="1350" as="targetPoint" />
          </mxGeometry>
        </mxCell>
        <mxCell id="VV1-WSSh1_EVQnIz84K7-73" value="" style="endArrow=classic;html=1;rounded=0;" parent="1" target="VV1-WSSh1_EVQnIz84K7-74" edge="1">
          <mxGeometry width="50" height="50" relative="1" as="geometry">
            <mxPoint x="160" y="1350" as="sourcePoint" />
            <mxPoint x="330" y="1350" as="targetPoint" />
          </mxGeometry>
        </mxCell>
        <mxCell id="VV1-WSSh1_EVQnIz84K7-74" value="|" style="text;strokeColor=none;fillColor=none;html=1;fontSize=24;fontStyle=1;verticalAlign=middle;align=center;" parent="1" vertex="1">
          <mxGeometry x="180" y="1330" width="100" height="40" as="geometry" />
        </mxCell>
        <mxCell id="VV1-WSSh1_EVQnIz84K7-84" value="" style="endArrow=classic;html=1;rounded=0;entryX=0;entryY=0.5;entryDx=0;entryDy=0;" parent="1" source="VV1-WSSh1_EVQnIz84K7-86" edge="1">
          <mxGeometry width="50" height="50" relative="1" as="geometry">
            <mxPoint x="161" y="1810" as="sourcePoint" />
            <mxPoint x="350.9999999999998" y="1810" as="targetPoint" />
          </mxGeometry>
        </mxCell>
        <mxCell id="VV1-WSSh1_EVQnIz84K7-85" value="" style="endArrow=classic;html=1;rounded=0;" parent="1" target="VV1-WSSh1_EVQnIz84K7-86" edge="1">
          <mxGeometry width="50" height="50" relative="1" as="geometry">
            <mxPoint x="161" y="1810" as="sourcePoint" />
            <mxPoint x="331" y="1810" as="targetPoint" />
          </mxGeometry>
        </mxCell>
        <mxCell id="VV1-WSSh1_EVQnIz84K7-86" value="." style="text;strokeColor=none;fillColor=none;html=1;fontSize=24;fontStyle=1;verticalAlign=middle;align=center;" parent="1" vertex="1">
          <mxGeometry x="181" y="1790" width="100" height="40" as="geometry" />
        </mxCell>
        <mxCell id="VV1-WSSh1_EVQnIz84K7-88" value="" style="endArrow=classic;html=1;rounded=0;edgeStyle=orthogonalEdgeStyle;" parent="1" source="VV1-WSSh1_EVQnIz84K7-90" target="ZWaSEKa7vMeZoo4IkMLN-47" edge="1">
          <mxGeometry width="50" height="50" relative="1" as="geometry">
            <mxPoint x="159" y="2020" as="sourcePoint" />
            <mxPoint x="580" y="2020" as="targetPoint" />
            <Array as="points">
              <mxPoint x="360" y="2020" />
              <mxPoint x="360" y="2020" />
            </Array>
          </mxGeometry>
        </mxCell>
        <mxCell id="VV1-WSSh1_EVQnIz84K7-89" value="" style="endArrow=classic;html=1;rounded=0;" parent="1" target="VV1-WSSh1_EVQnIz84K7-90" edge="1">
          <mxGeometry width="50" height="50" relative="1" as="geometry">
            <mxPoint x="159" y="2020" as="sourcePoint" />
            <mxPoint x="329" y="2020" as="targetPoint" />
          </mxGeometry>
        </mxCell>
        <mxCell id="VV1-WSSh1_EVQnIz84K7-90" value="_" style="text;strokeColor=none;fillColor=none;html=1;fontSize=24;fontStyle=1;verticalAlign=middle;align=center;" parent="1" vertex="1">
          <mxGeometry x="179" y="2000" width="100" height="40" as="geometry" />
        </mxCell>
        <mxCell id="VV1-WSSh1_EVQnIz84K7-92" value="" style="endArrow=classic;html=1;rounded=0;entryX=0;entryY=0.5;entryDx=0;entryDy=0;" parent="1" source="VV1-WSSh1_EVQnIz84K7-94" target="ZWaSEKa7vMeZoo4IkMLN-55" edge="1">
          <mxGeometry width="50" height="50" relative="1" as="geometry">
            <mxPoint x="159" y="2110" as="sourcePoint" />
            <mxPoint x="479" y="2110" as="targetPoint" />
            <Array as="points">
              <mxPoint x="470" y="2110" />
            </Array>
          </mxGeometry>
        </mxCell>
        <mxCell id="VV1-WSSh1_EVQnIz84K7-93" value="" style="endArrow=classic;html=1;rounded=0;" parent="1" target="VV1-WSSh1_EVQnIz84K7-94" edge="1">
          <mxGeometry width="50" height="50" relative="1" as="geometry">
            <mxPoint x="159" y="2110" as="sourcePoint" />
            <mxPoint x="329" y="2110" as="targetPoint" />
          </mxGeometry>
        </mxCell>
        <mxCell id="VV1-WSSh1_EVQnIz84K7-94" value="&lt;font style=&quot;font-size: 12px;&quot;&gt;ch in [a-zA-Z]&lt;/font&gt;" style="text;strokeColor=none;fillColor=none;html=1;fontSize=24;fontStyle=1;verticalAlign=middle;align=center;" parent="1" vertex="1">
          <mxGeometry x="179" y="2090" width="100" height="40" as="geometry" />
        </mxCell>
        <mxCell id="VV1-WSSh1_EVQnIz84K7-96" value="" style="endArrow=classic;html=1;rounded=0;edgeStyle=orthogonalEdgeStyle;entryX=0.5;entryY=1;entryDx=0;entryDy=0;" parent="1" source="VV1-WSSh1_EVQnIz84K7-108" target="ZWaSEKa7vMeZoo4IkMLN-55" edge="1">
          <mxGeometry width="50" height="50" relative="1" as="geometry">
            <mxPoint x="159" y="2200" as="sourcePoint" />
            <mxPoint x="519" y="2150" as="targetPoint" />
          </mxGeometry>
        </mxCell>
        <mxCell id="VV1-WSSh1_EVQnIz84K7-97" value="" style="endArrow=classic;html=1;rounded=0;" parent="1" target="VV1-WSSh1_EVQnIz84K7-98" edge="1">
          <mxGeometry width="50" height="50" relative="1" as="geometry">
            <mxPoint x="159" y="2200" as="sourcePoint" />
            <mxPoint x="329" y="2200" as="targetPoint" />
          </mxGeometry>
        </mxCell>
        <mxCell id="VV1-WSSh1_EVQnIz84K7-98" value="&lt;p style=&quot;line-height: 0%;&quot;&gt;&lt;font style=&quot;font-size: 12px;&quot;&gt;ch in [-4,-2]&lt;/font&gt;&lt;/p&gt;&lt;p&gt;&lt;/p&gt;" style="text;strokeColor=none;fillColor=none;html=1;fontSize=24;fontStyle=1;verticalAlign=middle;align=center;" parent="1" vertex="1">
          <mxGeometry x="179" y="2180" width="100" height="40" as="geometry" />
        </mxCell>
        <mxCell id="VV1-WSSh1_EVQnIz84K7-104" value="" style="endArrow=classic;html=1;rounded=0;entryX=0;entryY=0.5;entryDx=0;entryDy=0;" parent="1" source="VV1-WSSh1_EVQnIz84K7-106" edge="1">
          <mxGeometry width="50" height="50" relative="1" as="geometry">
            <mxPoint x="161" y="2510" as="sourcePoint" />
            <mxPoint x="351.0000000000002" y="2510" as="targetPoint" />
          </mxGeometry>
        </mxCell>
        <mxCell id="VV1-WSSh1_EVQnIz84K7-105" value="" style="endArrow=classic;html=1;rounded=0;" parent="1" target="VV1-WSSh1_EVQnIz84K7-106" edge="1">
          <mxGeometry width="50" height="50" relative="1" as="geometry">
            <mxPoint x="161" y="2510" as="sourcePoint" />
            <mxPoint x="331" y="2510" as="targetPoint" />
          </mxGeometry>
        </mxCell>
        <mxCell id="VV1-WSSh1_EVQnIz84K7-106" value="0" style="text;strokeColor=none;fillColor=none;html=1;fontSize=24;fontStyle=1;verticalAlign=middle;align=center;" parent="1" vertex="1">
          <mxGeometry x="181" y="2490" width="100" height="40" as="geometry" />
        </mxCell>
        <mxCell id="VV1-WSSh1_EVQnIz84K7-109" value="" style="endArrow=classic;html=1;rounded=0;entryX=0;entryY=0.5;entryDx=0;entryDy=0;" parent="1" source="VV1-WSSh1_EVQnIz84K7-98" target="VV1-WSSh1_EVQnIz84K7-108" edge="1">
          <mxGeometry width="50" height="50" relative="1" as="geometry">
            <mxPoint x="279" y="2200" as="sourcePoint" />
            <mxPoint x="429" y="2200" as="targetPoint" />
          </mxGeometry>
        </mxCell>
        <mxCell id="VV1-WSSh1_EVQnIz84K7-108" value="&lt;p style=&quot;line-height: 0px;&quot;&gt;&lt;span style=&quot;font-size: 12px; background-color: initial;&quot;&gt;isUStart(ch)&lt;/span&gt;&lt;br&gt;&lt;/p&gt;" style="text;strokeColor=none;fillColor=none;html=1;fontSize=24;fontStyle=1;verticalAlign=middle;align=center;" parent="1" vertex="1">
          <mxGeometry x="329" y="2180" width="100" height="40" as="geometry" />
        </mxCell>
        <mxCell id="VV1-WSSh1_EVQnIz84K7-111" value="" style="edgeStyle=segmentEdgeStyle;endArrow=classic;html=1;curved=0;rounded=0;endSize=8;startSize=8;entryX=0.5;entryY=0;entryDx=0;entryDy=0;" parent="1" source="VV1-WSSh1_EVQnIz84K7-113" target="VV1-WSSh1_EVQnIz84K7-161" edge="1">
          <mxGeometry width="50" height="50" relative="1" as="geometry">
            <mxPoint x="289" y="2200" as="sourcePoint" />
            <mxPoint x="478.9999999999998" y="2290" as="targetPoint" />
            <Array as="points">
              <mxPoint x="519" y="2290" />
            </Array>
          </mxGeometry>
        </mxCell>
        <mxCell id="VV1-WSSh1_EVQnIz84K7-115" value="" style="edgeStyle=segmentEdgeStyle;endArrow=classic;html=1;curved=0;rounded=0;endSize=8;startSize=8;entryX=0;entryY=0.5;entryDx=0;entryDy=0;" parent="1" target="VV1-WSSh1_EVQnIz84K7-113" edge="1">
          <mxGeometry width="50" height="50" relative="1" as="geometry">
            <mxPoint x="289" y="2200" as="sourcePoint" />
            <mxPoint x="479" y="2290" as="targetPoint" />
            <Array as="points">
              <mxPoint x="289" y="2290" />
              <mxPoint x="329" y="2290" />
            </Array>
          </mxGeometry>
        </mxCell>
        <mxCell id="VV1-WSSh1_EVQnIz84K7-113" value="&lt;p style=&quot;line-height: 170%;&quot;&gt;&lt;font style=&quot;font-size: 12px;&quot;&gt;isUBlank(ch)&lt;/font&gt;&lt;/p&gt;" style="text;strokeColor=none;fillColor=none;html=1;fontSize=24;fontStyle=1;verticalAlign=middle;align=center;" parent="1" vertex="1">
          <mxGeometry x="329" y="2270" width="100" height="40" as="geometry" />
        </mxCell>
        <mxCell id="VV1-WSSh1_EVQnIz84K7-150" value="" style="endArrow=classic;html=1;rounded=0;entryX=0;entryY=0.5;entryDx=0;entryDy=0;" parent="1" source="VV1-WSSh1_EVQnIz84K7-151" target="VV1-WSSh1_EVQnIz84K7-152" edge="1">
          <mxGeometry width="50" height="50" relative="1" as="geometry">
            <mxPoint x="159.5" y="3260" as="sourcePoint" />
            <mxPoint x="349.5" y="3260" as="targetPoint" />
          </mxGeometry>
        </mxCell>
        <mxCell id="VV1-WSSh1_EVQnIz84K7-151" value="&#39;" style="text;strokeColor=none;fillColor=none;html=1;fontSize=24;fontStyle=1;verticalAlign=middle;align=center;" parent="1" vertex="1">
          <mxGeometry x="179.5" y="3240" width="100" height="40" as="geometry" />
        </mxCell>
        <mxCell id="VV1-WSSh1_EVQnIz84K7-152" value="INSQUOTE" style="ellipse;whiteSpace=wrap;html=1;aspect=fixed;" parent="1" vertex="1">
          <mxGeometry x="349.5" y="3220" width="80" height="80" as="geometry" />
        </mxCell>
        <mxCell id="VV1-WSSh1_EVQnIz84K7-153" value="" style="endArrow=classic;html=1;rounded=0;" parent="1" edge="1">
          <mxGeometry width="50" height="50" relative="1" as="geometry">
            <mxPoint x="159.5" y="3260" as="sourcePoint" />
            <mxPoint x="179.5" y="3260" as="targetPoint" />
          </mxGeometry>
        </mxCell>
        <mxCell id="VV1-WSSh1_EVQnIz84K7-155" value="" style="endArrow=classic;html=1;rounded=0;entryX=0;entryY=0.5;entryDx=0;entryDy=0;" parent="1" source="VV1-WSSh1_EVQnIz84K7-157" target="VV1-WSSh1_EVQnIz84K7-158" edge="1">
          <mxGeometry width="50" height="50" relative="1" as="geometry">
            <mxPoint x="159.5" y="3350" as="sourcePoint" />
            <mxPoint x="349.5" y="3350" as="targetPoint" />
          </mxGeometry>
        </mxCell>
        <mxCell id="VV1-WSSh1_EVQnIz84K7-156" value="" style="endArrow=classic;html=1;rounded=0;" parent="1" target="VV1-WSSh1_EVQnIz84K7-157" edge="1">
          <mxGeometry width="50" height="50" relative="1" as="geometry">
            <mxPoint x="159.5" y="3350" as="sourcePoint" />
            <mxPoint x="329.5" y="3350" as="targetPoint" />
          </mxGeometry>
        </mxCell>
        <mxCell id="VV1-WSSh1_EVQnIz84K7-157" value="&quot;" style="text;strokeColor=none;fillColor=none;html=1;fontSize=24;fontStyle=1;verticalAlign=middle;align=center;" parent="1" vertex="1">
          <mxGeometry x="179.5" y="3330" width="100" height="40" as="geometry" />
        </mxCell>
        <mxCell id="VV1-WSSh1_EVQnIz84K7-158" value="INDQUOTE" style="ellipse;whiteSpace=wrap;html=1;aspect=fixed;" parent="1" vertex="1">
          <mxGeometry x="349.5" y="3310" width="80" height="80" as="geometry" />
        </mxCell>
        <mxCell id="VV1-WSSh1_EVQnIz84K7-159" value="" style="endArrow=classic;html=1;rounded=0;entryX=0;entryY=0.5;entryDx=0;entryDy=0;" parent="1" source="VV1-WSSh1_EVQnIz84K7-160" target="VV1-WSSh1_EVQnIz84K7-161" edge="1">
          <mxGeometry width="50" height="50" relative="1" as="geometry">
            <mxPoint x="159" y="2380" as="sourcePoint" />
            <mxPoint x="349" y="2380" as="targetPoint" />
          </mxGeometry>
        </mxCell>
        <mxCell id="VV1-WSSh1_EVQnIz84K7-160" value="&lt;font style=&quot;font-size: 12px;&quot;&gt;ASCII 空白符&lt;/font&gt;" style="text;strokeColor=none;fillColor=none;html=1;fontSize=24;fontStyle=1;verticalAlign=middle;align=center;" parent="1" vertex="1">
          <mxGeometry x="179" y="2360" width="100" height="40" as="geometry" />
        </mxCell>
        <mxCell id="VV1-WSSh1_EVQnIz84K7-161" value="START" style="ellipse;whiteSpace=wrap;html=1;aspect=fixed;" parent="1" vertex="1">
          <mxGeometry x="479" y="2340" width="80" height="80" as="geometry" />
        </mxCell>
        <mxCell id="VV1-WSSh1_EVQnIz84K7-162" value="" style="endArrow=classic;html=1;rounded=0;" parent="1" edge="1">
          <mxGeometry width="50" height="50" relative="1" as="geometry">
            <mxPoint x="159" y="2380" as="sourcePoint" />
            <mxPoint x="179" y="2380" as="targetPoint" />
          </mxGeometry>
        </mxCell>
        <mxCell id="efxZgGYCrOohWAM89N6y-84" value="" style="edgeStyle=orthogonalEdgeStyle;rounded=0;orthogonalLoop=1;jettySize=auto;html=1;" parent="1" source="efxZgGYCrOohWAM89N6y-85" target="efxZgGYCrOohWAM89N6y-83" edge="1">
          <mxGeometry relative="1" as="geometry" />
        </mxCell>
        <mxCell id="efxZgGYCrOohWAM89N6y-81" value="INOR" style="ellipse;shape=doubleEllipse;whiteSpace=wrap;html=1;aspect=fixed;" parent="1" vertex="1">
          <mxGeometry x="350" y="1310" width="80" height="80" as="geometry" />
        </mxCell>
        <mxCell id="ZWaSEKa7vMeZoo4IkMLN-26" value="" style="edgeStyle=orthogonalEdgeStyle;rounded=0;orthogonalLoop=1;jettySize=auto;html=1;" edge="1" parent="1" source="efxZgGYCrOohWAM89N6y-83" target="ZWaSEKa7vMeZoo4IkMLN-25">
          <mxGeometry relative="1" as="geometry" />
        </mxCell>
        <mxCell id="efxZgGYCrOohWAM89N6y-83" value="INOREQ" style="ellipse;shape=doubleEllipse;whiteSpace=wrap;html=1;aspect=fixed;" parent="1" vertex="1">
          <mxGeometry x="590" y="1310" width="80" height="80" as="geometry" />
        </mxCell>
        <mxCell id="efxZgGYCrOohWAM89N6y-86" value="" style="edgeStyle=orthogonalEdgeStyle;rounded=0;orthogonalLoop=1;jettySize=auto;html=1;" parent="1" source="efxZgGYCrOohWAM89N6y-81" target="efxZgGYCrOohWAM89N6y-85" edge="1">
          <mxGeometry relative="1" as="geometry">
            <mxPoint x="430" y="1350" as="sourcePoint" />
            <mxPoint x="590" y="1350" as="targetPoint" />
          </mxGeometry>
        </mxCell>
        <mxCell id="efxZgGYCrOohWAM89N6y-85" value="=" style="text;strokeColor=none;fillColor=none;html=1;fontSize=24;fontStyle=1;verticalAlign=middle;align=center;" parent="1" vertex="1">
          <mxGeometry x="460" y="1330" width="100" height="40" as="geometry" />
        </mxCell>
        <mxCell id="VV1-WSSh1_EVQnIz84K7-11" value="" style="edgeStyle=segmentEdgeStyle;endArrow=classic;html=1;curved=0;rounded=0;entryX=0;entryY=0.5;entryDx=0;entryDy=0;" parent="1" target="efxZgGYCrOohWAM89N6y-2" edge="1">
          <mxGeometry width="50" height="50" relative="1" as="geometry">
            <mxPoint x="160.37" y="240" as="sourcePoint" />
            <mxPoint x="469.9996296296296" y="3528.262450282898" as="targetPoint" />
            <Array as="points">
              <mxPoint x="160.37" y="3551.999536160439" />
            </Array>
          </mxGeometry>
        </mxCell>
        <mxCell id="efxZgGYCrOohWAM89N6y-1" value="&lt;font style=&quot;font-size: 12px;&quot;&gt;-1 | [@_,;#$?(){}[]]&lt;/font&gt;" style="text;strokeColor=none;fillColor=none;html=1;fontSize=24;fontStyle=1;verticalAlign=middle;align=center;container=1;" parent="1" vertex="1">
          <mxGeometry x="192.96259259259259" y="3512.3000112038544" width="162.96296296296296" height="63.84975631617278" as="geometry" />
        </mxCell>
        <mxCell id="efxZgGYCrOohWAM89N6y-2" value="DONE" style="ellipse;whiteSpace=wrap;html=1;aspect=fixed;" parent="1" vertex="1">
          <mxGeometry x="469.9996296296296" y="3512.3000112038544" width="79.99998879614589" height="79.99998879614589" as="geometry" />
        </mxCell>
        <mxCell id="efxZgGYCrOohWAM89N6y-98" value="" style="endArrow=classic;html=1;rounded=0;entryX=0;entryY=0.5;entryDx=0;entryDy=0;" parent="1" source="efxZgGYCrOohWAM89N6y-100" edge="1">
          <mxGeometry width="50" height="50" relative="1" as="geometry">
            <mxPoint x="161" y="1450" as="sourcePoint" />
            <mxPoint x="351" y="1450" as="targetPoint" />
          </mxGeometry>
        </mxCell>
        <mxCell id="efxZgGYCrOohWAM89N6y-99" value="" style="endArrow=classic;html=1;rounded=0;" parent="1" target="efxZgGYCrOohWAM89N6y-100" edge="1">
          <mxGeometry width="50" height="50" relative="1" as="geometry">
            <mxPoint x="161" y="1450" as="sourcePoint" />
            <mxPoint x="331" y="1450" as="targetPoint" />
          </mxGeometry>
        </mxCell>
        <mxCell id="efxZgGYCrOohWAM89N6y-100" value="&amp;lt;" style="text;strokeColor=none;fillColor=none;html=1;fontSize=24;fontStyle=1;verticalAlign=middle;align=center;" parent="1" vertex="1">
          <mxGeometry x="181" y="1430" width="100" height="40" as="geometry" />
        </mxCell>
        <mxCell id="efxZgGYCrOohWAM89N6y-101" value="" style="edgeStyle=orthogonalEdgeStyle;rounded=0;orthogonalLoop=1;jettySize=auto;html=1;" parent="1" source="efxZgGYCrOohWAM89N6y-107" target="efxZgGYCrOohWAM89N6y-105" edge="1">
          <mxGeometry relative="1" as="geometry" />
        </mxCell>
        <mxCell id="efxZgGYCrOohWAM89N6y-102" value="" style="edgeStyle=orthogonalEdgeStyle;rounded=0;orthogonalLoop=1;jettySize=auto;html=1;" parent="1" target="efxZgGYCrOohWAM89N6y-107" edge="1">
          <mxGeometry relative="1" as="geometry">
            <mxPoint x="491" y="1450" as="sourcePoint" />
          </mxGeometry>
        </mxCell>
        <mxCell id="efxZgGYCrOohWAM89N6y-103" value="" style="edgeStyle=orthogonalEdgeStyle;rounded=0;orthogonalLoop=1;jettySize=auto;html=1;" parent="1" target="efxZgGYCrOohWAM89N6y-107" edge="1">
          <mxGeometry relative="1" as="geometry">
            <mxPoint x="491" y="1450" as="sourcePoint" />
          </mxGeometry>
        </mxCell>
        <mxCell id="efxZgGYCrOohWAM89N6y-104" value="" style="edgeStyle=orthogonalEdgeStyle;rounded=0;orthogonalLoop=1;jettySize=auto;html=1;" parent="1" target="efxZgGYCrOohWAM89N6y-108" edge="1">
          <mxGeometry relative="1" as="geometry">
            <mxPoint x="431" y="1450" as="sourcePoint" />
            <Array as="points">
              <mxPoint x="461" y="1450" />
              <mxPoint x="461" y="1540" />
            </Array>
          </mxGeometry>
        </mxCell>
        <mxCell id="ZWaSEKa7vMeZoo4IkMLN-28" value="" style="edgeStyle=orthogonalEdgeStyle;rounded=0;orthogonalLoop=1;jettySize=auto;html=1;" edge="1" parent="1" source="efxZgGYCrOohWAM89N6y-105" target="ZWaSEKa7vMeZoo4IkMLN-27">
          <mxGeometry relative="1" as="geometry" />
        </mxCell>
        <mxCell id="efxZgGYCrOohWAM89N6y-105" value="INLE" style="ellipse;shape=doubleEllipse;whiteSpace=wrap;html=1;aspect=fixed;" parent="1" vertex="1">
          <mxGeometry x="731" y="1410" width="80" height="80" as="geometry" />
        </mxCell>
        <mxCell id="efxZgGYCrOohWAM89N6y-106" value="" style="edgeStyle=orthogonalEdgeStyle;rounded=0;orthogonalLoop=1;jettySize=auto;html=1;" parent="1" target="efxZgGYCrOohWAM89N6y-107" edge="1">
          <mxGeometry relative="1" as="geometry">
            <mxPoint x="441" y="1450" as="sourcePoint" />
            <mxPoint x="651" y="1450" as="targetPoint" />
          </mxGeometry>
        </mxCell>
        <mxCell id="efxZgGYCrOohWAM89N6y-107" value="=" style="text;strokeColor=none;fillColor=none;html=1;fontSize=24;fontStyle=1;verticalAlign=middle;align=center;" parent="1" vertex="1">
          <mxGeometry x="601" y="1430" width="100" height="40" as="geometry" />
        </mxCell>
        <mxCell id="efxZgGYCrOohWAM89N6y-113" value="" style="edgeStyle=orthogonalEdgeStyle;rounded=0;orthogonalLoop=1;jettySize=auto;html=1;" parent="1" source="efxZgGYCrOohWAM89N6y-114" target="efxZgGYCrOohWAM89N6y-112" edge="1">
          <mxGeometry relative="1" as="geometry" />
        </mxCell>
        <mxCell id="efxZgGYCrOohWAM89N6y-108" value="INSHL" style="ellipse;shape=doubleEllipse;whiteSpace=wrap;html=1;aspect=fixed;" parent="1" vertex="1">
          <mxGeometry x="731" y="1500" width="80" height="80" as="geometry" />
        </mxCell>
        <mxCell id="efxZgGYCrOohWAM89N6y-109" value="" style="edgeStyle=orthogonalEdgeStyle;rounded=0;orthogonalLoop=1;jettySize=auto;html=1;exitX=1;exitY=0.5;exitDx=0;exitDy=0;" parent="1" target="efxZgGYCrOohWAM89N6y-107" edge="1">
          <mxGeometry relative="1" as="geometry">
            <mxPoint x="431" y="1450" as="sourcePoint" />
            <mxPoint x="651" y="1450" as="targetPoint" />
          </mxGeometry>
        </mxCell>
        <mxCell id="efxZgGYCrOohWAM89N6y-110" value="&amp;lt;" style="text;strokeColor=none;fillColor=none;html=1;fontSize=24;fontStyle=1;verticalAlign=middle;align=center;" parent="1" vertex="1">
          <mxGeometry x="551" y="1500" width="100" height="40" as="geometry" />
        </mxCell>
        <mxCell id="efxZgGYCrOohWAM89N6y-111" value="INLT" style="ellipse;shape=doubleEllipse;whiteSpace=wrap;html=1;aspect=fixed;" parent="1" vertex="1">
          <mxGeometry x="351" y="1410" width="80" height="80" as="geometry" />
        </mxCell>
        <mxCell id="ZWaSEKa7vMeZoo4IkMLN-29" style="edgeStyle=orthogonalEdgeStyle;rounded=0;orthogonalLoop=1;jettySize=auto;html=1;exitX=1;exitY=0.5;exitDx=0;exitDy=0;entryX=1;entryY=0.5;entryDx=0;entryDy=0;" edge="1" parent="1" source="efxZgGYCrOohWAM89N6y-112" target="ZWaSEKa7vMeZoo4IkMLN-27">
          <mxGeometry relative="1" as="geometry" />
        </mxCell>
        <mxCell id="efxZgGYCrOohWAM89N6y-112" value="INSHLEQ" style="ellipse;shape=doubleEllipse;whiteSpace=wrap;html=1;aspect=fixed;" parent="1" vertex="1">
          <mxGeometry x="1061" y="1500" width="80" height="80" as="geometry" />
        </mxCell>
        <mxCell id="efxZgGYCrOohWAM89N6y-115" value="" style="edgeStyle=orthogonalEdgeStyle;rounded=0;orthogonalLoop=1;jettySize=auto;html=1;" parent="1" source="efxZgGYCrOohWAM89N6y-108" target="efxZgGYCrOohWAM89N6y-114" edge="1">
          <mxGeometry relative="1" as="geometry">
            <mxPoint x="811" y="1540" as="sourcePoint" />
            <mxPoint x="1051" y="1540" as="targetPoint" />
          </mxGeometry>
        </mxCell>
        <mxCell id="efxZgGYCrOohWAM89N6y-114" value="=" style="text;strokeColor=none;fillColor=none;html=1;fontSize=24;fontStyle=1;verticalAlign=middle;align=center;" parent="1" vertex="1">
          <mxGeometry x="891" y="1520" width="100" height="40" as="geometry" />
        </mxCell>
        <mxCell id="efxZgGYCrOohWAM89N6y-116" value="" style="endArrow=classic;html=1;rounded=0;entryX=0;entryY=0.5;entryDx=0;entryDy=0;" parent="1" source="efxZgGYCrOohWAM89N6y-118" edge="1">
          <mxGeometry width="50" height="50" relative="1" as="geometry">
            <mxPoint x="160.5" y="1170" as="sourcePoint" />
            <mxPoint x="350.5" y="1170" as="targetPoint" />
          </mxGeometry>
        </mxCell>
        <mxCell id="efxZgGYCrOohWAM89N6y-117" value="" style="endArrow=classic;html=1;rounded=0;" parent="1" target="efxZgGYCrOohWAM89N6y-118" edge="1">
          <mxGeometry width="50" height="50" relative="1" as="geometry">
            <mxPoint x="160.5" y="1170" as="sourcePoint" />
            <mxPoint x="330.5" y="1170" as="targetPoint" />
          </mxGeometry>
        </mxCell>
        <mxCell id="efxZgGYCrOohWAM89N6y-118" value="&amp;amp;" style="text;strokeColor=none;fillColor=none;html=1;fontSize=24;fontStyle=1;verticalAlign=middle;align=center;" parent="1" vertex="1">
          <mxGeometry x="180.5" y="1150" width="100" height="40" as="geometry" />
        </mxCell>
        <mxCell id="efxZgGYCrOohWAM89N6y-119" value="" style="edgeStyle=orthogonalEdgeStyle;rounded=0;orthogonalLoop=1;jettySize=auto;html=1;" parent="1" source="efxZgGYCrOohWAM89N6y-125" target="efxZgGYCrOohWAM89N6y-123" edge="1">
          <mxGeometry relative="1" as="geometry" />
        </mxCell>
        <mxCell id="efxZgGYCrOohWAM89N6y-120" value="" style="edgeStyle=orthogonalEdgeStyle;rounded=0;orthogonalLoop=1;jettySize=auto;html=1;" parent="1" target="efxZgGYCrOohWAM89N6y-125" edge="1">
          <mxGeometry relative="1" as="geometry">
            <mxPoint x="490.5" y="1170" as="sourcePoint" />
          </mxGeometry>
        </mxCell>
        <mxCell id="efxZgGYCrOohWAM89N6y-121" value="" style="edgeStyle=orthogonalEdgeStyle;rounded=0;orthogonalLoop=1;jettySize=auto;html=1;" parent="1" target="efxZgGYCrOohWAM89N6y-125" edge="1">
          <mxGeometry relative="1" as="geometry">
            <mxPoint x="490.5" y="1170" as="sourcePoint" />
          </mxGeometry>
        </mxCell>
        <mxCell id="efxZgGYCrOohWAM89N6y-122" value="" style="edgeStyle=orthogonalEdgeStyle;rounded=0;orthogonalLoop=1;jettySize=auto;html=1;" parent="1" target="efxZgGYCrOohWAM89N6y-126" edge="1">
          <mxGeometry relative="1" as="geometry">
            <mxPoint x="430.5" y="1170" as="sourcePoint" />
            <Array as="points">
              <mxPoint x="460.5" y="1170" />
              <mxPoint x="460.5" y="1260" />
            </Array>
          </mxGeometry>
        </mxCell>
        <mxCell id="efxZgGYCrOohWAM89N6y-123" value="INANDEQ" style="ellipse;shape=doubleEllipse;whiteSpace=wrap;html=1;aspect=fixed;" parent="1" vertex="1">
          <mxGeometry x="730.5" y="1130" width="80" height="80" as="geometry" />
        </mxCell>
        <mxCell id="efxZgGYCrOohWAM89N6y-124" value="" style="edgeStyle=orthogonalEdgeStyle;rounded=0;orthogonalLoop=1;jettySize=auto;html=1;" parent="1" target="efxZgGYCrOohWAM89N6y-125" edge="1">
          <mxGeometry relative="1" as="geometry">
            <mxPoint x="440.5" y="1170" as="sourcePoint" />
            <mxPoint x="650.5" y="1170" as="targetPoint" />
          </mxGeometry>
        </mxCell>
        <mxCell id="efxZgGYCrOohWAM89N6y-125" value="=" style="text;strokeColor=none;fillColor=none;html=1;fontSize=24;fontStyle=1;verticalAlign=middle;align=center;" parent="1" vertex="1">
          <mxGeometry x="600.5" y="1150" width="100" height="40" as="geometry" />
        </mxCell>
        <mxCell id="efxZgGYCrOohWAM89N6y-126" value="INANDAND" style="ellipse;shape=doubleEllipse;whiteSpace=wrap;html=1;aspect=fixed;" parent="1" vertex="1">
          <mxGeometry x="730.5" y="1220" width="80" height="80" as="geometry" />
        </mxCell>
        <mxCell id="efxZgGYCrOohWAM89N6y-127" value="" style="edgeStyle=orthogonalEdgeStyle;rounded=0;orthogonalLoop=1;jettySize=auto;html=1;exitX=1;exitY=0.5;exitDx=0;exitDy=0;" parent="1" target="efxZgGYCrOohWAM89N6y-125" edge="1">
          <mxGeometry relative="1" as="geometry">
            <mxPoint x="430.5" y="1170" as="sourcePoint" />
            <mxPoint x="650.5" y="1170" as="targetPoint" />
          </mxGeometry>
        </mxCell>
        <mxCell id="efxZgGYCrOohWAM89N6y-128" value="&amp;amp;" style="text;strokeColor=none;fillColor=none;html=1;fontSize=24;fontStyle=1;verticalAlign=middle;align=center;" parent="1" vertex="1">
          <mxGeometry x="550.5" y="1220" width="100" height="40" as="geometry" />
        </mxCell>
        <mxCell id="efxZgGYCrOohWAM89N6y-129" value="INAND" style="ellipse;shape=doubleEllipse;whiteSpace=wrap;html=1;aspect=fixed;" parent="1" vertex="1">
          <mxGeometry x="350.5" y="1130" width="80" height="80" as="geometry" />
        </mxCell>
        <mxCell id="efxZgGYCrOohWAM89N6y-130" value="" style="endArrow=classic;html=1;rounded=0;entryX=0;entryY=0.5;entryDx=0;entryDy=0;" parent="1" source="efxZgGYCrOohWAM89N6y-132" edge="1">
          <mxGeometry width="50" height="50" relative="1" as="geometry">
            <mxPoint x="160.5" y="1629" as="sourcePoint" />
            <mxPoint x="350.5" y="1629" as="targetPoint" />
          </mxGeometry>
        </mxCell>
        <mxCell id="efxZgGYCrOohWAM89N6y-131" value="" style="endArrow=classic;html=1;rounded=0;" parent="1" target="efxZgGYCrOohWAM89N6y-132" edge="1">
          <mxGeometry width="50" height="50" relative="1" as="geometry">
            <mxPoint x="160.5" y="1629" as="sourcePoint" />
            <mxPoint x="330.5" y="1629" as="targetPoint" />
          </mxGeometry>
        </mxCell>
        <mxCell id="efxZgGYCrOohWAM89N6y-132" value="&amp;gt;" style="text;strokeColor=none;fillColor=none;html=1;fontSize=24;fontStyle=1;verticalAlign=middle;align=center;" parent="1" vertex="1">
          <mxGeometry x="180.5" y="1609" width="100" height="40" as="geometry" />
        </mxCell>
        <mxCell id="efxZgGYCrOohWAM89N6y-133" value="" style="edgeStyle=orthogonalEdgeStyle;rounded=0;orthogonalLoop=1;jettySize=auto;html=1;" parent="1" source="efxZgGYCrOohWAM89N6y-139" target="efxZgGYCrOohWAM89N6y-137" edge="1">
          <mxGeometry relative="1" as="geometry" />
        </mxCell>
        <mxCell id="efxZgGYCrOohWAM89N6y-134" value="" style="edgeStyle=orthogonalEdgeStyle;rounded=0;orthogonalLoop=1;jettySize=auto;html=1;" parent="1" target="efxZgGYCrOohWAM89N6y-139" edge="1">
          <mxGeometry relative="1" as="geometry">
            <mxPoint x="490.5" y="1629" as="sourcePoint" />
          </mxGeometry>
        </mxCell>
        <mxCell id="efxZgGYCrOohWAM89N6y-135" value="" style="edgeStyle=orthogonalEdgeStyle;rounded=0;orthogonalLoop=1;jettySize=auto;html=1;" parent="1" target="efxZgGYCrOohWAM89N6y-139" edge="1">
          <mxGeometry relative="1" as="geometry">
            <mxPoint x="490.5" y="1629" as="sourcePoint" />
          </mxGeometry>
        </mxCell>
        <mxCell id="efxZgGYCrOohWAM89N6y-136" value="" style="edgeStyle=orthogonalEdgeStyle;rounded=0;orthogonalLoop=1;jettySize=auto;html=1;" parent="1" target="efxZgGYCrOohWAM89N6y-141" edge="1">
          <mxGeometry relative="1" as="geometry">
            <mxPoint x="430.5" y="1629" as="sourcePoint" />
            <Array as="points">
              <mxPoint x="460.5" y="1629" />
              <mxPoint x="460.5" y="1719" />
            </Array>
          </mxGeometry>
        </mxCell>
        <mxCell id="ZWaSEKa7vMeZoo4IkMLN-32" value="" style="edgeStyle=orthogonalEdgeStyle;rounded=0;orthogonalLoop=1;jettySize=auto;html=1;" edge="1" parent="1" source="efxZgGYCrOohWAM89N6y-137" target="ZWaSEKa7vMeZoo4IkMLN-31">
          <mxGeometry relative="1" as="geometry" />
        </mxCell>
        <mxCell id="efxZgGYCrOohWAM89N6y-137" value="INGE" style="ellipse;shape=doubleEllipse;whiteSpace=wrap;html=1;aspect=fixed;" parent="1" vertex="1">
          <mxGeometry x="730.5" y="1589" width="80" height="80" as="geometry" />
        </mxCell>
        <mxCell id="efxZgGYCrOohWAM89N6y-138" value="" style="edgeStyle=orthogonalEdgeStyle;rounded=0;orthogonalLoop=1;jettySize=auto;html=1;" parent="1" target="efxZgGYCrOohWAM89N6y-139" edge="1">
          <mxGeometry relative="1" as="geometry">
            <mxPoint x="440.5" y="1629" as="sourcePoint" />
            <mxPoint x="650.5" y="1629" as="targetPoint" />
          </mxGeometry>
        </mxCell>
        <mxCell id="efxZgGYCrOohWAM89N6y-139" value="=" style="text;strokeColor=none;fillColor=none;html=1;fontSize=24;fontStyle=1;verticalAlign=middle;align=center;" parent="1" vertex="1">
          <mxGeometry x="600.5" y="1609" width="100" height="40" as="geometry" />
        </mxCell>
        <mxCell id="efxZgGYCrOohWAM89N6y-140" value="" style="edgeStyle=orthogonalEdgeStyle;rounded=0;orthogonalLoop=1;jettySize=auto;html=1;" parent="1" source="efxZgGYCrOohWAM89N6y-147" target="efxZgGYCrOohWAM89N6y-145" edge="1">
          <mxGeometry relative="1" as="geometry" />
        </mxCell>
        <mxCell id="efxZgGYCrOohWAM89N6y-141" value="INSHR" style="ellipse;shape=doubleEllipse;whiteSpace=wrap;html=1;aspect=fixed;" parent="1" vertex="1">
          <mxGeometry x="730.5" y="1679" width="80" height="80" as="geometry" />
        </mxCell>
        <mxCell id="efxZgGYCrOohWAM89N6y-142" value="" style="edgeStyle=orthogonalEdgeStyle;rounded=0;orthogonalLoop=1;jettySize=auto;html=1;exitX=1;exitY=0.5;exitDx=0;exitDy=0;" parent="1" target="efxZgGYCrOohWAM89N6y-139" edge="1">
          <mxGeometry relative="1" as="geometry">
            <mxPoint x="430.5" y="1629" as="sourcePoint" />
            <mxPoint x="650.5" y="1629" as="targetPoint" />
          </mxGeometry>
        </mxCell>
        <mxCell id="efxZgGYCrOohWAM89N6y-143" value="&amp;gt;" style="text;strokeColor=none;fillColor=none;html=1;fontSize=24;fontStyle=1;verticalAlign=middle;align=center;" parent="1" vertex="1">
          <mxGeometry x="550.5" y="1679" width="100" height="40" as="geometry" />
        </mxCell>
        <mxCell id="efxZgGYCrOohWAM89N6y-144" value="INGT" style="ellipse;shape=doubleEllipse;whiteSpace=wrap;html=1;aspect=fixed;" parent="1" vertex="1">
          <mxGeometry x="350.5" y="1589" width="80" height="80" as="geometry" />
        </mxCell>
        <mxCell id="ZWaSEKa7vMeZoo4IkMLN-30" style="edgeStyle=orthogonalEdgeStyle;rounded=0;orthogonalLoop=1;jettySize=auto;html=1;exitX=1;exitY=0.5;exitDx=0;exitDy=0;entryX=1;entryY=0.5;entryDx=0;entryDy=0;" edge="1" parent="1" source="efxZgGYCrOohWAM89N6y-145" target="ZWaSEKa7vMeZoo4IkMLN-31">
          <mxGeometry relative="1" as="geometry">
            <mxPoint x="1000.5" y="1610" as="targetPoint" />
          </mxGeometry>
        </mxCell>
        <mxCell id="efxZgGYCrOohWAM89N6y-145" value="INSHREQ" style="ellipse;shape=doubleEllipse;whiteSpace=wrap;html=1;aspect=fixed;" parent="1" vertex="1">
          <mxGeometry x="1060.5" y="1679" width="80" height="80" as="geometry" />
        </mxCell>
        <mxCell id="efxZgGYCrOohWAM89N6y-146" value="" style="edgeStyle=orthogonalEdgeStyle;rounded=0;orthogonalLoop=1;jettySize=auto;html=1;" parent="1" source="efxZgGYCrOohWAM89N6y-141" target="efxZgGYCrOohWAM89N6y-147" edge="1">
          <mxGeometry relative="1" as="geometry">
            <mxPoint x="810.5" y="1719" as="sourcePoint" />
            <mxPoint x="1050.5" y="1719" as="targetPoint" />
          </mxGeometry>
        </mxCell>
        <mxCell id="efxZgGYCrOohWAM89N6y-147" value="=" style="text;strokeColor=none;fillColor=none;html=1;fontSize=24;fontStyle=1;verticalAlign=middle;align=center;" parent="1" vertex="1">
          <mxGeometry x="890.5" y="1699" width="100" height="40" as="geometry" />
        </mxCell>
        <mxCell id="efxZgGYCrOohWAM89N6y-150" value="" style="edgeStyle=orthogonalEdgeStyle;rounded=0;orthogonalLoop=1;jettySize=auto;html=1;" parent="1" source="efxZgGYCrOohWAM89N6y-151" target="efxZgGYCrOohWAM89N6y-149" edge="1">
          <mxGeometry relative="1" as="geometry" />
        </mxCell>
        <mxCell id="efxZgGYCrOohWAM89N6y-148" value="INDOT" style="ellipse;shape=doubleEllipse;whiteSpace=wrap;html=1;aspect=fixed;" parent="1" vertex="1">
          <mxGeometry x="351" y="1770" width="80" height="80" as="geometry" />
        </mxCell>
        <mxCell id="efxZgGYCrOohWAM89N6y-154" value="" style="edgeStyle=orthogonalEdgeStyle;rounded=0;orthogonalLoop=1;jettySize=auto;html=1;" parent="1" source="efxZgGYCrOohWAM89N6y-155" target="efxZgGYCrOohWAM89N6y-153" edge="1">
          <mxGeometry relative="1" as="geometry" />
        </mxCell>
        <mxCell id="efxZgGYCrOohWAM89N6y-149" value="INDOTDOT" style="ellipse;shape=doubleEllipse;whiteSpace=wrap;html=1;aspect=fixed;" parent="1" vertex="1">
          <mxGeometry x="730.5" y="1770" width="80" height="80" as="geometry" />
        </mxCell>
        <mxCell id="efxZgGYCrOohWAM89N6y-152" value="" style="edgeStyle=orthogonalEdgeStyle;rounded=0;orthogonalLoop=1;jettySize=auto;html=1;" parent="1" source="efxZgGYCrOohWAM89N6y-148" target="efxZgGYCrOohWAM89N6y-151" edge="1">
          <mxGeometry relative="1" as="geometry">
            <mxPoint x="431.5" y="1810" as="sourcePoint" />
            <mxPoint x="590.5" y="1810" as="targetPoint" />
          </mxGeometry>
        </mxCell>
        <mxCell id="efxZgGYCrOohWAM89N6y-151" value="." style="text;strokeColor=none;fillColor=none;html=1;fontSize=24;fontStyle=1;verticalAlign=middle;align=center;" parent="1" vertex="1">
          <mxGeometry x="540.5" y="1790" width="100" height="40" as="geometry" />
        </mxCell>
        <mxCell id="efxZgGYCrOohWAM89N6y-158" value="" style="edgeStyle=orthogonalEdgeStyle;rounded=0;orthogonalLoop=1;jettySize=auto;html=1;" parent="1" source="efxZgGYCrOohWAM89N6y-159" target="efxZgGYCrOohWAM89N6y-157" edge="1">
          <mxGeometry relative="1" as="geometry" />
        </mxCell>
        <mxCell id="efxZgGYCrOohWAM89N6y-153" value="INDOTDOT&lt;div&gt;DOT&lt;/div&gt;" style="ellipse;shape=doubleEllipse;whiteSpace=wrap;html=1;aspect=fixed;" parent="1" vertex="1">
          <mxGeometry x="1061" y="1770" width="80" height="80" as="geometry" />
        </mxCell>
        <mxCell id="efxZgGYCrOohWAM89N6y-156" value="" style="edgeStyle=orthogonalEdgeStyle;rounded=0;orthogonalLoop=1;jettySize=auto;html=1;" parent="1" source="efxZgGYCrOohWAM89N6y-149" target="efxZgGYCrOohWAM89N6y-155" edge="1">
          <mxGeometry relative="1" as="geometry">
            <mxPoint x="810.5" y="1810" as="sourcePoint" />
            <mxPoint x="1061.5" y="1810" as="targetPoint" />
          </mxGeometry>
        </mxCell>
        <mxCell id="efxZgGYCrOohWAM89N6y-155" value="." style="text;strokeColor=none;fillColor=none;html=1;fontSize=24;fontStyle=1;verticalAlign=middle;align=center;" parent="1" vertex="1">
          <mxGeometry x="890.5" y="1790" width="100" height="40" as="geometry" />
        </mxCell>
        <mxCell id="ZWaSEKa7vMeZoo4IkMLN-34" value="" style="edgeStyle=orthogonalEdgeStyle;rounded=0;orthogonalLoop=1;jettySize=auto;html=1;" edge="1" parent="1" source="efxZgGYCrOohWAM89N6y-157" target="ZWaSEKa7vMeZoo4IkMLN-33">
          <mxGeometry relative="1" as="geometry" />
        </mxCell>
        <mxCell id="efxZgGYCrOohWAM89N6y-157" value="INDOTDOT&lt;div&gt;DOTEQ&lt;/div&gt;" style="ellipse;shape=doubleEllipse;whiteSpace=wrap;html=1;aspect=fixed;" parent="1" vertex="1">
          <mxGeometry x="1410.5" y="1770" width="80" height="80" as="geometry" />
        </mxCell>
        <mxCell id="efxZgGYCrOohWAM89N6y-160" value="" style="edgeStyle=orthogonalEdgeStyle;rounded=0;orthogonalLoop=1;jettySize=auto;html=1;" parent="1" source="efxZgGYCrOohWAM89N6y-153" target="efxZgGYCrOohWAM89N6y-159" edge="1">
          <mxGeometry relative="1" as="geometry">
            <mxPoint x="1141.5" y="1810" as="sourcePoint" />
            <mxPoint x="1410.5" y="1810" as="targetPoint" />
          </mxGeometry>
        </mxCell>
        <mxCell id="efxZgGYCrOohWAM89N6y-159" value="=" style="text;strokeColor=none;fillColor=none;html=1;fontSize=24;fontStyle=1;verticalAlign=middle;align=center;" parent="1" vertex="1">
          <mxGeometry x="1230.5" y="1790" width="100" height="40" as="geometry" />
        </mxCell>
        <mxCell id="ZWaSEKa7vMeZoo4IkMLN-79" value="" style="edgeStyle=orthogonalEdgeStyle;rounded=0;orthogonalLoop=1;jettySize=auto;html=1;" edge="1" parent="1" source="ZWaSEKa7vMeZoo4IkMLN-83" target="ZWaSEKa7vMeZoo4IkMLN-78">
          <mxGeometry relative="1" as="geometry" />
        </mxCell>
        <mxCell id="ZWaSEKa7vMeZoo4IkMLN-93" style="edgeStyle=orthogonalEdgeStyle;rounded=0;orthogonalLoop=1;jettySize=auto;html=1;exitX=1;exitY=0.5;exitDx=0;exitDy=0;entryX=0;entryY=0.5;entryDx=0;entryDy=0;" edge="1" parent="1" source="efxZgGYCrOohWAM89N6y-161" target="ZWaSEKa7vMeZoo4IkMLN-94">
          <mxGeometry relative="1" as="geometry">
            <mxPoint x="540" y="2610" as="targetPoint" />
            <Array as="points">
              <mxPoint x="450" y="2510" />
              <mxPoint x="450" y="2670" />
            </Array>
          </mxGeometry>
        </mxCell>
        <mxCell id="ZWaSEKa7vMeZoo4IkMLN-95" value="&lt;font style=&quot;font-size: 24px;&quot;&gt;b&lt;/font&gt;" style="edgeLabel;html=1;align=center;verticalAlign=middle;resizable=0;points=[];" vertex="1" connectable="0" parent="ZWaSEKa7vMeZoo4IkMLN-93">
          <mxGeometry x="0.3871" relative="1" as="geometry">
            <mxPoint x="13" as="offset" />
          </mxGeometry>
        </mxCell>
        <mxCell id="ZWaSEKa7vMeZoo4IkMLN-97" style="edgeStyle=orthogonalEdgeStyle;rounded=0;orthogonalLoop=1;jettySize=auto;html=1;exitX=1;exitY=0.5;exitDx=0;exitDy=0;entryX=0;entryY=0.5;entryDx=0;entryDy=0;" edge="1" parent="1" source="efxZgGYCrOohWAM89N6y-161" target="ZWaSEKa7vMeZoo4IkMLN-105">
          <mxGeometry relative="1" as="geometry">
            <mxPoint x="711" y="2870" as="targetPoint" />
            <Array as="points">
              <mxPoint x="450" y="2510" />
              <mxPoint x="450" y="2840" />
            </Array>
          </mxGeometry>
        </mxCell>
        <mxCell id="ZWaSEKa7vMeZoo4IkMLN-101" value="&lt;font style=&quot;font-size: 24px;&quot;&gt;o&lt;/font&gt;" style="edgeLabel;html=1;align=center;verticalAlign=middle;resizable=0;points=[];" vertex="1" connectable="0" parent="ZWaSEKa7vMeZoo4IkMLN-97">
          <mxGeometry x="0.5078" y="-1" relative="1" as="geometry">
            <mxPoint x="29" y="-1" as="offset" />
          </mxGeometry>
        </mxCell>
        <mxCell id="ZWaSEKa7vMeZoo4IkMLN-99" style="edgeStyle=orthogonalEdgeStyle;rounded=0;orthogonalLoop=1;jettySize=auto;html=1;exitX=1;exitY=0.5;exitDx=0;exitDy=0;entryX=0;entryY=0.5;entryDx=0;entryDy=0;" edge="1" parent="1" source="efxZgGYCrOohWAM89N6y-161" target="ZWaSEKa7vMeZoo4IkMLN-108">
          <mxGeometry relative="1" as="geometry">
            <mxPoint x="711" y="2960" as="targetPoint" />
            <Array as="points">
              <mxPoint x="450" y="2510" />
              <mxPoint x="450" y="3010" />
            </Array>
          </mxGeometry>
        </mxCell>
        <mxCell id="ZWaSEKa7vMeZoo4IkMLN-102" value="&lt;font style=&quot;font-size: 24px;&quot;&gt;x&lt;/font&gt;" style="edgeLabel;html=1;align=center;verticalAlign=middle;resizable=0;points=[];" vertex="1" connectable="0" parent="ZWaSEKa7vMeZoo4IkMLN-99">
          <mxGeometry x="0.6269" y="1" relative="1" as="geometry">
            <mxPoint x="24" y="1" as="offset" />
          </mxGeometry>
        </mxCell>
        <mxCell id="efxZgGYCrOohWAM89N6y-161" value="INZERO" style="ellipse;shape=doubleEllipse;whiteSpace=wrap;html=1;aspect=fixed;" parent="1" vertex="1">
          <mxGeometry x="351" y="2470" width="80" height="80" as="geometry" />
        </mxCell>
        <mxCell id="ZWaSEKa7vMeZoo4IkMLN-1" value="DONE" style="ellipse;shape=doubleEllipse;whiteSpace=wrap;html=1;aspect=fixed;" vertex="1" parent="1">
          <mxGeometry x="749" y="200" width="80" height="80" as="geometry" />
        </mxCell>
        <mxCell id="ZWaSEKa7vMeZoo4IkMLN-3" value="DONE" style="ellipse;shape=doubleEllipse;whiteSpace=wrap;html=1;aspect=fixed;" vertex="1" parent="1">
          <mxGeometry x="750" y="290" width="80" height="80" as="geometry" />
        </mxCell>
        <mxCell id="ZWaSEKa7vMeZoo4IkMLN-8" value="DONE" style="ellipse;shape=doubleEllipse;whiteSpace=wrap;html=1;aspect=fixed;" vertex="1" parent="1">
          <mxGeometry x="750.5" y="390" width="80" height="80" as="geometry" />
        </mxCell>
        <mxCell id="ZWaSEKa7vMeZoo4IkMLN-10" value="DONE" style="ellipse;shape=doubleEllipse;whiteSpace=wrap;html=1;aspect=fixed;" vertex="1" parent="1">
          <mxGeometry x="750.5" y="480" width="80" height="80" as="geometry" />
        </mxCell>
        <mxCell id="ZWaSEKa7vMeZoo4IkMLN-12" value="DONE" style="ellipse;shape=doubleEllipse;whiteSpace=wrap;html=1;aspect=fixed;" vertex="1" parent="1">
          <mxGeometry x="750.5" y="570" width="80" height="80" as="geometry" />
        </mxCell>
        <mxCell id="ZWaSEKa7vMeZoo4IkMLN-14" value="DONE" style="ellipse;shape=doubleEllipse;whiteSpace=wrap;html=1;aspect=fixed;" vertex="1" parent="1">
          <mxGeometry x="750.5" y="660" width="80" height="80" as="geometry" />
        </mxCell>
        <mxCell id="ZWaSEKa7vMeZoo4IkMLN-16" value="DONE" style="ellipse;shape=doubleEllipse;whiteSpace=wrap;html=1;aspect=fixed;" vertex="1" parent="1">
          <mxGeometry x="890.5" y="750" width="80" height="80" as="geometry" />
        </mxCell>
        <mxCell id="ZWaSEKa7vMeZoo4IkMLN-19" value="" style="edgeStyle=orthogonalEdgeStyle;rounded=0;orthogonalLoop=1;jettySize=auto;html=1;" edge="1" parent="1" target="ZWaSEKa7vMeZoo4IkMLN-21">
          <mxGeometry relative="1" as="geometry">
            <mxPoint x="811" y="990" as="sourcePoint" />
          </mxGeometry>
        </mxCell>
        <mxCell id="ZWaSEKa7vMeZoo4IkMLN-20" style="edgeStyle=orthogonalEdgeStyle;rounded=0;orthogonalLoop=1;jettySize=auto;html=1;exitX=1;exitY=0.5;exitDx=0;exitDy=0;entryX=0.5;entryY=1;entryDx=0;entryDy=0;" edge="1" parent="1" target="ZWaSEKa7vMeZoo4IkMLN-21">
          <mxGeometry relative="1" as="geometry">
            <mxPoint x="811" y="1080" as="sourcePoint" />
          </mxGeometry>
        </mxCell>
        <mxCell id="ZWaSEKa7vMeZoo4IkMLN-21" value="DONE" style="ellipse;shape=doubleEllipse;whiteSpace=wrap;html=1;aspect=fixed;" vertex="1" parent="1">
          <mxGeometry x="891" y="950" width="80" height="80" as="geometry" />
        </mxCell>
        <mxCell id="ZWaSEKa7vMeZoo4IkMLN-22" value="" style="edgeStyle=orthogonalEdgeStyle;rounded=0;orthogonalLoop=1;jettySize=auto;html=1;" edge="1" parent="1" target="ZWaSEKa7vMeZoo4IkMLN-24">
          <mxGeometry relative="1" as="geometry">
            <mxPoint x="811" y="1169.5" as="sourcePoint" />
          </mxGeometry>
        </mxCell>
        <mxCell id="ZWaSEKa7vMeZoo4IkMLN-23" style="edgeStyle=orthogonalEdgeStyle;rounded=0;orthogonalLoop=1;jettySize=auto;html=1;exitX=1;exitY=0.5;exitDx=0;exitDy=0;entryX=0.5;entryY=1;entryDx=0;entryDy=0;" edge="1" parent="1" target="ZWaSEKa7vMeZoo4IkMLN-24">
          <mxGeometry relative="1" as="geometry">
            <mxPoint x="811" y="1259.5" as="sourcePoint" />
          </mxGeometry>
        </mxCell>
        <mxCell id="ZWaSEKa7vMeZoo4IkMLN-24" value="DONE" style="ellipse;shape=doubleEllipse;whiteSpace=wrap;html=1;aspect=fixed;" vertex="1" parent="1">
          <mxGeometry x="891" y="1129.5" width="80" height="80" as="geometry" />
        </mxCell>
        <mxCell id="ZWaSEKa7vMeZoo4IkMLN-25" value="DONE" style="ellipse;shape=doubleEllipse;whiteSpace=wrap;html=1;aspect=fixed;" vertex="1" parent="1">
          <mxGeometry x="750" y="1310" width="80" height="80" as="geometry" />
        </mxCell>
        <mxCell id="ZWaSEKa7vMeZoo4IkMLN-27" value="DONE" style="ellipse;shape=doubleEllipse;whiteSpace=wrap;html=1;aspect=fixed;" vertex="1" parent="1">
          <mxGeometry x="891" y="1410" width="80" height="80" as="geometry" />
        </mxCell>
        <mxCell id="ZWaSEKa7vMeZoo4IkMLN-31" value="DONE" style="ellipse;shape=doubleEllipse;whiteSpace=wrap;html=1;aspect=fixed;" vertex="1" parent="1">
          <mxGeometry x="890.5" y="1589" width="80" height="80" as="geometry" />
        </mxCell>
        <mxCell id="ZWaSEKa7vMeZoo4IkMLN-33" value="DONE" style="ellipse;shape=doubleEllipse;whiteSpace=wrap;html=1;aspect=fixed;" vertex="1" parent="1">
          <mxGeometry x="1570.5" y="1770" width="80" height="80" as="geometry" />
        </mxCell>
        <mxCell id="ZWaSEKa7vMeZoo4IkMLN-35" value="" style="endArrow=classic;html=1;rounded=0;entryX=0;entryY=0.5;entryDx=0;entryDy=0;" edge="1" parent="1" source="ZWaSEKa7vMeZoo4IkMLN-37">
          <mxGeometry width="50" height="50" relative="1" as="geometry">
            <mxPoint x="160.5" y="3460" as="sourcePoint" />
            <mxPoint x="350.5" y="3460" as="targetPoint" />
          </mxGeometry>
        </mxCell>
        <mxCell id="ZWaSEKa7vMeZoo4IkMLN-36" value="" style="endArrow=classic;html=1;rounded=0;" edge="1" parent="1" target="ZWaSEKa7vMeZoo4IkMLN-37">
          <mxGeometry width="50" height="50" relative="1" as="geometry">
            <mxPoint x="160.5" y="3460" as="sourcePoint" />
            <mxPoint x="330.5" y="3460" as="targetPoint" />
          </mxGeometry>
        </mxCell>
        <mxCell id="ZWaSEKa7vMeZoo4IkMLN-37" value="/" style="text;strokeColor=none;fillColor=none;html=1;fontSize=24;fontStyle=1;verticalAlign=middle;align=center;" vertex="1" parent="1">
          <mxGeometry x="180.5" y="3440" width="100" height="40" as="geometry" />
        </mxCell>
        <mxCell id="ZWaSEKa7vMeZoo4IkMLN-38" value="" style="edgeStyle=orthogonalEdgeStyle;rounded=0;orthogonalLoop=1;jettySize=auto;html=1;" edge="1" parent="1" source="ZWaSEKa7vMeZoo4IkMLN-43" target="ZWaSEKa7vMeZoo4IkMLN-41">
          <mxGeometry relative="1" as="geometry" />
        </mxCell>
        <mxCell id="ZWaSEKa7vMeZoo4IkMLN-39" value="INSLASH" style="ellipse;shape=doubleEllipse;whiteSpace=wrap;html=1;aspect=fixed;" vertex="1" parent="1">
          <mxGeometry x="350.5" y="3420" width="80" height="80" as="geometry" />
        </mxCell>
        <mxCell id="ZWaSEKa7vMeZoo4IkMLN-40" value="" style="edgeStyle=orthogonalEdgeStyle;rounded=0;orthogonalLoop=1;jettySize=auto;html=1;" edge="1" parent="1" source="ZWaSEKa7vMeZoo4IkMLN-41" target="ZWaSEKa7vMeZoo4IkMLN-44">
          <mxGeometry relative="1" as="geometry" />
        </mxCell>
        <mxCell id="ZWaSEKa7vMeZoo4IkMLN-41" value="INSLASHEQ" style="ellipse;shape=doubleEllipse;whiteSpace=wrap;html=1;aspect=fixed;" vertex="1" parent="1">
          <mxGeometry x="590.5" y="3420" width="80" height="80" as="geometry" />
        </mxCell>
        <mxCell id="ZWaSEKa7vMeZoo4IkMLN-42" value="" style="edgeStyle=orthogonalEdgeStyle;rounded=0;orthogonalLoop=1;jettySize=auto;html=1;" edge="1" parent="1" source="ZWaSEKa7vMeZoo4IkMLN-39" target="ZWaSEKa7vMeZoo4IkMLN-43">
          <mxGeometry relative="1" as="geometry">
            <mxPoint x="430.5" y="3460" as="sourcePoint" />
            <mxPoint x="590.5" y="3460" as="targetPoint" />
          </mxGeometry>
        </mxCell>
        <mxCell id="ZWaSEKa7vMeZoo4IkMLN-43" value="=" style="text;strokeColor=none;fillColor=none;html=1;fontSize=24;fontStyle=1;verticalAlign=middle;align=center;" vertex="1" parent="1">
          <mxGeometry x="460.5" y="3440" width="100" height="40" as="geometry" />
        </mxCell>
        <mxCell id="ZWaSEKa7vMeZoo4IkMLN-44" value="DONE" style="ellipse;shape=doubleEllipse;whiteSpace=wrap;html=1;aspect=fixed;" vertex="1" parent="1">
          <mxGeometry x="750.5" y="3420" width="80" height="80" as="geometry" />
        </mxCell>
        <mxCell id="ZWaSEKa7vMeZoo4IkMLN-53" value="" style="edgeStyle=orthogonalEdgeStyle;rounded=0;orthogonalLoop=1;jettySize=auto;html=1;entryX=0;entryY=0.5;entryDx=0;entryDy=0;" edge="1" parent="1" source="ZWaSEKa7vMeZoo4IkMLN-58" target="ZWaSEKa7vMeZoo4IkMLN-54">
          <mxGeometry relative="1" as="geometry">
            <mxPoint x="629" y="2020" as="targetPoint" />
          </mxGeometry>
        </mxCell>
        <mxCell id="ZWaSEKa7vMeZoo4IkMLN-47" value="INID_" style="ellipse;whiteSpace=wrap;html=1;aspect=fixed;" vertex="1" parent="1">
          <mxGeometry x="479" y="1980" width="80" height="80" as="geometry" />
        </mxCell>
        <mxCell id="ZWaSEKa7vMeZoo4IkMLN-62" style="edgeStyle=orthogonalEdgeStyle;rounded=0;orthogonalLoop=1;jettySize=auto;html=1;exitX=1;exitY=0.5;exitDx=0;exitDy=0;entryX=0.5;entryY=0;entryDx=0;entryDy=0;" edge="1" parent="1" source="ZWaSEKa7vMeZoo4IkMLN-54" target="ZWaSEKa7vMeZoo4IkMLN-54">
          <mxGeometry relative="1" as="geometry">
            <mxPoint x="800" y="1960" as="targetPoint" />
            <Array as="points">
              <mxPoint x="890" y="2020" />
              <mxPoint x="890" y="1950" />
              <mxPoint x="790" y="1950" />
              <mxPoint x="790" y="1980" />
            </Array>
          </mxGeometry>
        </mxCell>
        <mxCell id="ZWaSEKa7vMeZoo4IkMLN-72" value="" style="edgeStyle=orthogonalEdgeStyle;rounded=0;orthogonalLoop=1;jettySize=auto;html=1;" edge="1" parent="1" source="ZWaSEKa7vMeZoo4IkMLN-54" target="ZWaSEKa7vMeZoo4IkMLN-71">
          <mxGeometry relative="1" as="geometry" />
        </mxCell>
        <mxCell id="ZWaSEKa7vMeZoo4IkMLN-54" value="INIDCON" style="ellipse;shape=doubleEllipse;whiteSpace=wrap;html=1;aspect=fixed;" vertex="1" parent="1">
          <mxGeometry x="750.5" y="1980" width="80" height="80" as="geometry" />
        </mxCell>
        <mxCell id="ZWaSEKa7vMeZoo4IkMLN-57" style="edgeStyle=orthogonalEdgeStyle;rounded=0;orthogonalLoop=1;jettySize=auto;html=1;exitX=1;exitY=0.5;exitDx=0;exitDy=0;entryX=0.5;entryY=1;entryDx=0;entryDy=0;" edge="1" parent="1" source="ZWaSEKa7vMeZoo4IkMLN-60" target="ZWaSEKa7vMeZoo4IkMLN-54">
          <mxGeometry relative="1" as="geometry" />
        </mxCell>
        <mxCell id="ZWaSEKa7vMeZoo4IkMLN-55" value="INIDST" style="ellipse;shape=doubleEllipse;whiteSpace=wrap;html=1;aspect=fixed;" vertex="1" parent="1">
          <mxGeometry x="479" y="2070" width="80" height="80" as="geometry" />
        </mxCell>
        <mxCell id="ZWaSEKa7vMeZoo4IkMLN-59" value="" style="edgeStyle=orthogonalEdgeStyle;rounded=0;orthogonalLoop=1;jettySize=auto;html=1;entryX=0;entryY=0.5;entryDx=0;entryDy=0;" edge="1" parent="1" source="ZWaSEKa7vMeZoo4IkMLN-47" target="ZWaSEKa7vMeZoo4IkMLN-58">
          <mxGeometry relative="1" as="geometry">
            <mxPoint x="559" y="2020" as="sourcePoint" />
            <mxPoint x="720" y="2020" as="targetPoint" />
          </mxGeometry>
        </mxCell>
        <mxCell id="ZWaSEKa7vMeZoo4IkMLN-58" value="&lt;font style=&quot;font-size: 12px;&quot;&gt;isIDContinue&lt;/font&gt;" style="text;strokeColor=none;fillColor=none;html=1;fontSize=24;fontStyle=1;verticalAlign=middle;align=center;" vertex="1" parent="1">
          <mxGeometry x="610" y="2000" width="100" height="40" as="geometry" />
        </mxCell>
        <mxCell id="ZWaSEKa7vMeZoo4IkMLN-61" value="" style="edgeStyle=orthogonalEdgeStyle;rounded=0;orthogonalLoop=1;jettySize=auto;html=1;exitX=1;exitY=0.5;exitDx=0;exitDy=0;entryX=0;entryY=0.5;entryDx=0;entryDy=0;" edge="1" parent="1" source="ZWaSEKa7vMeZoo4IkMLN-55" target="ZWaSEKa7vMeZoo4IkMLN-60">
          <mxGeometry relative="1" as="geometry">
            <mxPoint x="559" y="2110" as="sourcePoint" />
            <mxPoint x="760" y="2060" as="targetPoint" />
          </mxGeometry>
        </mxCell>
        <mxCell id="ZWaSEKa7vMeZoo4IkMLN-60" value="&lt;font style=&quot;font-size: 12px;&quot;&gt;isIDContinue&lt;/font&gt;" style="text;strokeColor=none;fillColor=none;html=1;fontSize=24;fontStyle=1;verticalAlign=middle;align=center;" vertex="1" parent="1">
          <mxGeometry x="610" y="2090" width="100" height="40" as="geometry" />
        </mxCell>
        <mxCell id="ZWaSEKa7vMeZoo4IkMLN-63" value="&lt;font style=&quot;font-size: 12px;&quot;&gt;isIDContinue&lt;/font&gt;" style="text;strokeColor=none;fillColor=none;html=1;fontSize=24;fontStyle=1;verticalAlign=middle;align=center;" vertex="1" parent="1">
          <mxGeometry x="791" y="1920" width="100" height="40" as="geometry" />
        </mxCell>
        <mxCell id="ZWaSEKa7vMeZoo4IkMLN-71" value="DONE" style="ellipse;shape=doubleEllipse;whiteSpace=wrap;html=1;aspect=fixed;" vertex="1" parent="1">
          <mxGeometry x="1040" y="1980" width="80" height="80" as="geometry" />
        </mxCell>
        <mxCell id="ZWaSEKa7vMeZoo4IkMLN-73" value="&lt;font size=&quot;3&quot;&gt;other&lt;/font&gt;" style="text;strokeColor=none;fillColor=none;html=1;fontSize=24;fontStyle=1;verticalAlign=middle;align=center;" vertex="1" parent="1">
          <mxGeometry x="910" y="1990" width="100" height="40" as="geometry" />
        </mxCell>
        <mxCell id="ZWaSEKa7vMeZoo4IkMLN-74" value="" style="endArrow=classic;html=1;rounded=0;entryX=0;entryY=0.5;entryDx=0;entryDy=0;" edge="1" parent="1" source="ZWaSEKa7vMeZoo4IkMLN-76">
          <mxGeometry width="50" height="50" relative="1" as="geometry">
            <mxPoint x="162" y="3160" as="sourcePoint" />
            <mxPoint x="352.0000000000002" y="3160" as="targetPoint" />
          </mxGeometry>
        </mxCell>
        <mxCell id="ZWaSEKa7vMeZoo4IkMLN-75" value="" style="endArrow=classic;html=1;rounded=0;" edge="1" parent="1" target="ZWaSEKa7vMeZoo4IkMLN-76">
          <mxGeometry width="50" height="50" relative="1" as="geometry">
            <mxPoint x="162" y="3160" as="sourcePoint" />
            <mxPoint x="332" y="3160" as="targetPoint" />
          </mxGeometry>
        </mxCell>
        <mxCell id="ZWaSEKa7vMeZoo4IkMLN-76" value="[1-9]" style="text;strokeColor=none;fillColor=none;html=1;fontSize=24;fontStyle=1;verticalAlign=middle;align=center;" vertex="1" parent="1">
          <mxGeometry x="182" y="3140" width="100" height="40" as="geometry" />
        </mxCell>
        <mxCell id="ZWaSEKa7vMeZoo4IkMLN-77" value="INDEC" style="ellipse;shape=doubleEllipse;whiteSpace=wrap;html=1;aspect=fixed;" vertex="1" parent="1">
          <mxGeometry x="352" y="3120" width="80" height="80" as="geometry" />
        </mxCell>
        <mxCell id="ZWaSEKa7vMeZoo4IkMLN-87" style="edgeStyle=orthogonalEdgeStyle;rounded=0;orthogonalLoop=1;jettySize=auto;html=1;exitX=1;exitY=0.5;exitDx=0;exitDy=0;entryX=0.5;entryY=0;entryDx=0;entryDy=0;" edge="1" parent="1" source="ZWaSEKa7vMeZoo4IkMLN-78" target="ZWaSEKa7vMeZoo4IkMLN-78">
          <mxGeometry relative="1" as="geometry">
            <mxPoint x="751" y="2460" as="targetPoint" />
            <Array as="points">
              <mxPoint x="830" y="2510" />
              <mxPoint x="830" y="2430" />
              <mxPoint x="751" y="2430" />
            </Array>
          </mxGeometry>
        </mxCell>
        <mxCell id="ZWaSEKa7vMeZoo4IkMLN-91" value="" style="edgeStyle=orthogonalEdgeStyle;rounded=0;orthogonalLoop=1;jettySize=auto;html=1;" edge="1" parent="1" source="ZWaSEKa7vMeZoo4IkMLN-78" target="ZWaSEKa7vMeZoo4IkMLN-90">
          <mxGeometry relative="1" as="geometry" />
        </mxCell>
        <mxCell id="ZWaSEKa7vMeZoo4IkMLN-92" value="&lt;font style=&quot;font-size: 14px;&quot;&gt;other&lt;/font&gt;" style="edgeLabel;html=1;align=center;verticalAlign=middle;resizable=0;points=[];" vertex="1" connectable="0" parent="ZWaSEKa7vMeZoo4IkMLN-91">
          <mxGeometry x="0.3282" relative="1" as="geometry">
            <mxPoint as="offset" />
          </mxGeometry>
        </mxCell>
        <mxCell id="ZWaSEKa7vMeZoo4IkMLN-78" value="INDEC" style="ellipse;shape=doubleEllipse;whiteSpace=wrap;html=1;aspect=fixed;" vertex="1" parent="1">
          <mxGeometry x="711" y="2470" width="80" height="80" as="geometry" />
        </mxCell>
        <mxCell id="ZWaSEKa7vMeZoo4IkMLN-80" value="INBIN" style="ellipse;shape=doubleEllipse;whiteSpace=wrap;html=1;aspect=fixed;" vertex="1" parent="1">
          <mxGeometry x="491" y="3120" width="80" height="80" as="geometry" />
        </mxCell>
        <mxCell id="ZWaSEKa7vMeZoo4IkMLN-81" value="INOCT" style="ellipse;shape=doubleEllipse;whiteSpace=wrap;html=1;aspect=fixed;" vertex="1" parent="1">
          <mxGeometry x="612" y="3120" width="80" height="80" as="geometry" />
        </mxCell>
        <mxCell id="ZWaSEKa7vMeZoo4IkMLN-82" value="INHEX" style="ellipse;shape=doubleEllipse;whiteSpace=wrap;html=1;aspect=fixed;" vertex="1" parent="1">
          <mxGeometry x="731.5" y="3120" width="80" height="80" as="geometry" />
        </mxCell>
        <mxCell id="ZWaSEKa7vMeZoo4IkMLN-84" value="" style="edgeStyle=orthogonalEdgeStyle;rounded=0;orthogonalLoop=1;jettySize=auto;html=1;" edge="1" parent="1" source="efxZgGYCrOohWAM89N6y-161" target="ZWaSEKa7vMeZoo4IkMLN-83">
          <mxGeometry relative="1" as="geometry">
            <mxPoint x="431" y="2510" as="sourcePoint" />
            <mxPoint x="641" y="2510" as="targetPoint" />
          </mxGeometry>
        </mxCell>
        <mxCell id="ZWaSEKa7vMeZoo4IkMLN-83" value="[0-9]|_" style="text;strokeColor=none;fillColor=none;html=1;fontSize=24;fontStyle=1;verticalAlign=middle;align=center;" vertex="1" parent="1">
          <mxGeometry x="540.5" y="2490" width="100" height="40" as="geometry" />
        </mxCell>
        <mxCell id="ZWaSEKa7vMeZoo4IkMLN-88" value="[0-9]|_" style="text;strokeColor=none;fillColor=none;html=1;fontSize=24;fontStyle=1;verticalAlign=middle;align=center;" vertex="1" parent="1">
          <mxGeometry x="740.5" y="2390" width="100" height="40" as="geometry" />
        </mxCell>
        <mxCell id="ZWaSEKa7vMeZoo4IkMLN-90" value="DONE" style="ellipse;shape=doubleEllipse;whiteSpace=wrap;html=1;aspect=fixed;" vertex="1" parent="1">
          <mxGeometry x="950" y="2470" width="80" height="80" as="geometry" />
        </mxCell>
        <mxCell id="ZWaSEKa7vMeZoo4IkMLN-111" value="other" style="edgeStyle=orthogonalEdgeStyle;rounded=0;orthogonalLoop=1;jettySize=auto;html=1;exitX=1;exitY=0.5;exitDx=0;exitDy=0;" edge="1" parent="1" source="ZWaSEKa7vMeZoo4IkMLN-94">
          <mxGeometry x="0.3743" y="1" relative="1" as="geometry">
            <mxPoint x="949.9999999999998" y="2670.344827586207" as="targetPoint" />
            <mxPoint as="offset" />
          </mxGeometry>
        </mxCell>
        <mxCell id="ZWaSEKa7vMeZoo4IkMLN-94" value="INBIN" style="ellipse;shape=doubleEllipse;whiteSpace=wrap;html=1;aspect=fixed;" vertex="1" parent="1">
          <mxGeometry x="711" y="2630" width="80" height="80" as="geometry" />
        </mxCell>
        <mxCell id="ZWaSEKa7vMeZoo4IkMLN-103" style="edgeStyle=orthogonalEdgeStyle;rounded=0;orthogonalLoop=1;jettySize=auto;html=1;entryX=0.5;entryY=0;entryDx=0;entryDy=0;exitX=1;exitY=0.5;exitDx=0;exitDy=0;" edge="1" parent="1" source="ZWaSEKa7vMeZoo4IkMLN-94" target="ZWaSEKa7vMeZoo4IkMLN-94">
          <mxGeometry relative="1" as="geometry">
            <mxPoint x="751" y="2630" as="targetPoint" />
            <mxPoint x="800" y="2680" as="sourcePoint" />
            <Array as="points">
              <mxPoint x="830" y="2670" />
              <mxPoint x="830" y="2590" />
              <mxPoint x="751" y="2590" />
            </Array>
          </mxGeometry>
        </mxCell>
        <mxCell id="ZWaSEKa7vMeZoo4IkMLN-104" value="[01_]" style="text;strokeColor=none;fillColor=none;html=1;fontSize=24;fontStyle=1;verticalAlign=middle;align=center;" vertex="1" parent="1">
          <mxGeometry x="740.5" y="2550" width="100" height="40" as="geometry" />
        </mxCell>
        <mxCell id="ZWaSEKa7vMeZoo4IkMLN-114" style="edgeStyle=orthogonalEdgeStyle;rounded=0;orthogonalLoop=1;jettySize=auto;html=1;exitX=1;exitY=0.5;exitDx=0;exitDy=0;entryX=0;entryY=0.5;entryDx=0;entryDy=0;" edge="1" parent="1" source="ZWaSEKa7vMeZoo4IkMLN-105" target="ZWaSEKa7vMeZoo4IkMLN-116">
          <mxGeometry relative="1" as="geometry">
            <mxPoint x="960" y="2839.9523809523807" as="targetPoint" />
          </mxGeometry>
        </mxCell>
        <mxCell id="ZWaSEKa7vMeZoo4IkMLN-115" value="other" style="edgeLabel;html=1;align=center;verticalAlign=middle;resizable=0;points=[];" vertex="1" connectable="0" parent="ZWaSEKa7vMeZoo4IkMLN-114">
          <mxGeometry x="0.2947" y="1" relative="1" as="geometry">
            <mxPoint as="offset" />
          </mxGeometry>
        </mxCell>
        <mxCell id="ZWaSEKa7vMeZoo4IkMLN-105" value="INOCT" style="ellipse;shape=doubleEllipse;whiteSpace=wrap;html=1;aspect=fixed;" vertex="1" parent="1">
          <mxGeometry x="710" y="2800" width="80" height="80" as="geometry" />
        </mxCell>
        <mxCell id="ZWaSEKa7vMeZoo4IkMLN-106" style="edgeStyle=orthogonalEdgeStyle;rounded=0;orthogonalLoop=1;jettySize=auto;html=1;entryX=0.5;entryY=0;entryDx=0;entryDy=0;exitX=1;exitY=0.5;exitDx=0;exitDy=0;" edge="1" parent="1" source="ZWaSEKa7vMeZoo4IkMLN-105" target="ZWaSEKa7vMeZoo4IkMLN-105">
          <mxGeometry relative="1" as="geometry">
            <mxPoint x="750" y="2800" as="targetPoint" />
            <mxPoint x="799" y="2850" as="sourcePoint" />
            <Array as="points">
              <mxPoint x="829" y="2840" />
              <mxPoint x="829" y="2760" />
              <mxPoint x="750" y="2760" />
            </Array>
          </mxGeometry>
        </mxCell>
        <mxCell id="ZWaSEKa7vMeZoo4IkMLN-107" value="[0-7]|_" style="text;strokeColor=none;fillColor=none;html=1;fontSize=24;fontStyle=1;verticalAlign=middle;align=center;" vertex="1" parent="1">
          <mxGeometry x="739.5" y="2720" width="100" height="40" as="geometry" />
        </mxCell>
        <mxCell id="ZWaSEKa7vMeZoo4IkMLN-117" style="edgeStyle=orthogonalEdgeStyle;rounded=0;orthogonalLoop=1;jettySize=auto;html=1;exitX=1;exitY=0.5;exitDx=0;exitDy=0;entryX=0;entryY=0.5;entryDx=0;entryDy=0;" edge="1" parent="1" source="ZWaSEKa7vMeZoo4IkMLN-108" target="ZWaSEKa7vMeZoo4IkMLN-118">
          <mxGeometry relative="1" as="geometry">
            <mxPoint x="950" y="3010" as="targetPoint" />
          </mxGeometry>
        </mxCell>
        <mxCell id="ZWaSEKa7vMeZoo4IkMLN-119" value="other" style="edgeLabel;html=1;align=center;verticalAlign=middle;resizable=0;points=[];" vertex="1" connectable="0" parent="ZWaSEKa7vMeZoo4IkMLN-117">
          <mxGeometry x="0.228" relative="1" as="geometry">
            <mxPoint as="offset" />
          </mxGeometry>
        </mxCell>
        <mxCell id="ZWaSEKa7vMeZoo4IkMLN-108" value="INHEX" style="ellipse;shape=doubleEllipse;whiteSpace=wrap;html=1;aspect=fixed;" vertex="1" parent="1">
          <mxGeometry x="711" y="2970" width="80" height="80" as="geometry" />
        </mxCell>
        <mxCell id="ZWaSEKa7vMeZoo4IkMLN-109" style="edgeStyle=orthogonalEdgeStyle;rounded=0;orthogonalLoop=1;jettySize=auto;html=1;entryX=0.5;entryY=0;entryDx=0;entryDy=0;exitX=1;exitY=0.5;exitDx=0;exitDy=0;" edge="1" parent="1" source="ZWaSEKa7vMeZoo4IkMLN-108" target="ZWaSEKa7vMeZoo4IkMLN-108">
          <mxGeometry relative="1" as="geometry">
            <mxPoint x="751" y="2970" as="targetPoint" />
            <mxPoint x="800" y="3020" as="sourcePoint" />
            <Array as="points">
              <mxPoint x="830" y="3010" />
              <mxPoint x="830" y="2930" />
              <mxPoint x="751" y="2930" />
            </Array>
          </mxGeometry>
        </mxCell>
        <mxCell id="ZWaSEKa7vMeZoo4IkMLN-120" value="" style="edgeStyle=orthogonalEdgeStyle;rounded=0;orthogonalLoop=1;jettySize=auto;html=1;" edge="1" parent="1" source="ZWaSEKa7vMeZoo4IkMLN-110" target="ZWaSEKa7vMeZoo4IkMLN-116">
          <mxGeometry relative="1" as="geometry" />
        </mxCell>
        <mxCell id="ZWaSEKa7vMeZoo4IkMLN-110" value="[0-9a-fA-F]|_" style="text;strokeColor=none;fillColor=none;html=1;fontSize=24;fontStyle=1;verticalAlign=middle;align=center;" vertex="1" parent="1">
          <mxGeometry x="740.5" y="2890" width="100" height="40" as="geometry" />
        </mxCell>
        <mxCell id="ZWaSEKa7vMeZoo4IkMLN-112" value="DONE" style="ellipse;shape=doubleEllipse;whiteSpace=wrap;html=1;aspect=fixed;" vertex="1" parent="1">
          <mxGeometry x="950" y="2630" width="80" height="80" as="geometry" />
        </mxCell>
        <mxCell id="ZWaSEKa7vMeZoo4IkMLN-116" value="DONE" style="ellipse;shape=doubleEllipse;whiteSpace=wrap;html=1;aspect=fixed;" vertex="1" parent="1">
          <mxGeometry x="950" y="2800" width="80" height="80" as="geometry" />
        </mxCell>
        <mxCell id="ZWaSEKa7vMeZoo4IkMLN-118" value="DONE" style="ellipse;shape=doubleEllipse;whiteSpace=wrap;html=1;aspect=fixed;" vertex="1" parent="1">
          <mxGeometry x="950" y="2970" width="80" height="80" as="geometry" />
        </mxCell>
      </root>
    </mxGraphModel>
  </diagram>
</mxfile>
